<svg width="20" height="20" viewBox="0 0 20 20" fill="none" xmlns="http://www.w3.org/2000/svg">
<path d="M8.99962 2C12.3133 2 14.9996 4.68629 14.9996 8C14.9996 11.3137 12.3133 14 8.99962 14H2.49962C2.30105 13.9998 2.12113 13.8821 2.04161 13.7002C1.96224 13.5181 1.99835 13.3058 2.1334 13.1602L3.93516 11.2178C3.34317 10.2878 2.99962 9.18343 2.99962 8C2.99962 4.68643 5.68609 2.00022 8.99962 2ZM8.99962 3C6.23838 3.00022 3.99961 5.23871 3.99961 8C3.99961 9.11212 4.36265 10.1386 4.97618 10.9688C5.11884 11.1621 5.1035 11.4293 4.94004 11.6055L3.64512 13H8.99962C11.761 13 13.9996 10.7614 13.9996 8C13.9996 5.23858 11.761 3 8.99962 3Z" fill="black"/>
<path d="M16.5447 9.72766C16.4184 9.53278 16.168 9.4466 15.9432 9.5343C15.7185 9.62227 15.5934 9.85514 15.6326 10.0841L15.7371 10.3956C15.9075 10.8987 16.0008 11.4381 16.0008 12.0001C16.0008 13.1124 15.6378 14.1387 15.0242 14.9688C14.8813 15.1622 14.8958 15.4303 15.0594 15.6065L16.3533 17.0001H11.0008C9.54537 17.0001 8.23545 16.3783 7.32109 15.3849L7.07109 15.1104C6.89014 14.9646 6.62553 14.9607 6.43925 15.1144C6.25285 15.2683 6.20686 15.5291 6.31621 15.7345L6.58476 16.0626C7.68066 17.2531 9.25395 18.0001 11.0008 18.0001H17.5008C17.6993 17.9999 17.8793 17.8823 17.9588 17.7003C18.0382 17.5182 18.002 17.3059 17.867 17.1603L16.0633 15.2179C16.6556 14.2877 17.0008 13.1838 17.0008 12.0001C17.0008 11.3272 16.8893 10.6793 16.6844 10.0743L16.5447 9.72766Z" fill="black"/>
</svg>
