<svg width="512" height="512" viewBox="0 0 512 512" fill="none" xmlns="http://www.w3.org/2000/svg">
<g clip-path="url(#clip0_2816_9375)">
<path d="M436.87 75.131C337.252 -24.4864 174.748 -24.4864 74.5739 75.131C-25.0435 174.748 -25.0435 337.253 74.5739 437.427C124.661 487.514 190.33 512.557 255.443 512.557C321.113 512.557 386.783 487.514 436.313 437.427C537.043 337.253 537.043 174.748 436.87 75.131ZM106.296 405.705C29.4956 328.348 24.4869 205.914 91.2695 122.992L389.009 420.731C306.087 487.514 183.652 483.061 106.296 405.705ZM420.73 389.009L122.991 91.2701C161.391 60.1049 208.696 44.5223 256 44.5223C309.983 44.5223 364.522 65.1136 405.704 106.296C482.504 183.653 487.513 306.088 420.73 389.009Z" fill="black"/>
</g>
<defs>
<clipPath id="clip0_2816_9375">
<rect width="512" height="512" fill="white"/>
</clipPath>
</defs>
</svg>
