<?xml version="1.0" standalone="no"?>
<!DOCTYPE svg PUBLIC "-//W3C//DTD SVG 20010904//EN"
 "http://www.w3.org/TR/2001/REC-SVG-20010904/DTD/svg10.dtd">
<svg version="1.0" xmlns="http://www.w3.org/2000/svg"
 width="72.000000pt" height="72.000000pt" viewBox="0 0 72.000000 72.000000"
 preserveAspectRatio="xMidYMid meet">

<g transform="translate(0.000000,72.000000) scale(0.100000,-0.100000)"
fill="#000000" stroke="none">
<path d="M336 585 c-21 -7 -51 -25 -66 -40 -20 -20 -34 -25 -49 -20 -49 15
-131 -32 -131 -76 0 -10 -18 -38 -39 -63 -62 -71 -66 -144 -14 -207 47 -55 68
-59 330 -59 207 0 242 2 272 18 101 51 106 185 10 250 -21 15 -38 37 -45 61
-17 57 -52 98 -108 126 -56 28 -102 31 -160 10z m116 -15 c62 -18 111 -68 132
-137 7 -21 4 -23 -24 -23 -46 0 -32 -21 17 -25 22 -2 50 -9 62 -17 33 -20 62
-88 55 -127 -9 -41 -54 -86 -95 -95 -50 -10 -441 -7 -478 4 -46 13 -79 46 -92
92 -8 32 -6 46 10 82 10 24 31 52 45 61 15 10 26 27 26 40 0 12 9 34 21 49 40
51 123 27 144 -41 3 -13 11 -23 16 -23 15 0 10 33 -10 67 -18 29 -18 32 -3 46
21 18 58 37 91 48 36 10 41 10 83 -1z"/>
</g>
</svg>
