<svg width="512" height="512" viewBox="0 0 512 512" fill="none" xmlns="http://www.w3.org/2000/svg">
<path d="M341.333 426.666H170.667C153.693 426.666 137.414 419.923 125.412 407.921C113.41 395.919 106.667 379.64 106.667 362.666V149.333C106.667 143.675 104.419 138.249 100.418 134.248C96.4175 130.247 90.9913 127.999 85.3333 127.999C79.6754 127.999 74.2492 130.247 70.2484 134.248C66.2476 138.249 64 143.675 64 149.333V362.666C64 390.956 75.2381 418.087 95.2419 438.091C115.246 458.095 142.377 469.333 170.667 469.333H341.333C346.991 469.333 352.418 467.085 356.418 463.084C360.419 459.084 362.667 453.657 362.667 447.999C362.667 442.341 360.419 436.915 356.418 432.914C352.418 428.914 346.991 426.666 341.333 426.666ZM448 190.719C447.778 188.76 447.349 186.829 446.72 184.959V183.039C445.694 180.846 444.326 178.83 442.667 177.066L314.667 49.066C312.903 47.4066 310.887 46.0384 308.693 45.0127H306.773L299.947 42.666H213.333C196.359 42.666 180.081 49.4089 168.079 61.4112C156.076 73.4135 149.333 89.6922 149.333 106.666V319.999C149.333 336.973 156.076 353.252 168.079 365.254C180.081 377.256 196.359 383.999 213.333 383.999H384C400.974 383.999 417.253 377.256 429.255 365.254C441.257 353.252 448 336.973 448 319.999V191.999C448 191.999 448 191.999 448 190.719ZM320 115.413L375.253 170.666H341.333C335.675 170.666 330.249 168.418 326.248 164.418C322.248 160.417 320 154.991 320 149.333V115.413ZM405.333 319.999C405.333 325.657 403.086 331.083 399.085 335.084C395.084 339.085 389.658 341.333 384 341.333H213.333C207.675 341.333 202.249 339.085 198.248 335.084C194.248 331.083 192 325.657 192 319.999V106.666C192 101.008 194.248 95.5818 198.248 91.5811C202.249 87.5803 207.675 85.3327 213.333 85.3327H277.333V149.333C277.333 166.307 284.076 182.585 296.078 194.588C308.081 206.59 324.359 213.333 341.333 213.333H405.333V319.999Z" fill="black"/>
</svg>
