<svg width="32" height="32" viewBox="0 0 32 32" fill="none" xmlns="http://www.w3.org/2000/svg">
<path d="M27.9994 18.666C27.6457 18.666 27.3066 18.8065 27.0565 19.0565C26.8065 19.3066 26.666 19.6457 26.666 19.9993V25.3327C26.666 25.6863 26.5255 26.0254 26.2755 26.2755C26.0254 26.5255 25.6863 26.666 25.3327 26.666H6.66602C6.31239 26.666 5.97326 26.5255 5.72321 26.2755C5.47316 26.0254 5.33268 25.6863 5.33268 25.3327V19.9993C5.33268 19.6457 5.19221 19.3066 4.94216 19.0565C4.69211 18.8065 4.35297 18.666 3.99935 18.666C3.64573 18.666 3.30659 18.8065 3.05654 19.0565C2.80649 19.3066 2.66602 19.6457 2.66602 19.9993V25.3327C2.66602 26.3936 3.08744 27.411 3.83759 28.1611C4.58773 28.9113 5.60515 29.3327 6.66602 29.3327H25.3327C26.3936 29.3327 27.411 28.9113 28.1611 28.1611C28.9113 27.411 29.3327 26.3936 29.3327 25.3327V19.9993C29.3327 19.6457 29.1922 19.3066 28.9422 19.0565C28.6921 18.8065 28.353 18.666 27.9994 18.666ZM15.0527 20.946C15.1795 21.0674 15.329 21.1626 15.4927 21.226C15.6523 21.2966 15.8249 21.333 15.9993 21.333C16.1738 21.333 16.3464 21.2966 16.506 21.226C16.6697 21.1626 16.8192 21.0674 16.946 20.946L22.2793 15.6127C22.5304 15.3616 22.6715 15.0211 22.6715 14.666C22.6715 14.3109 22.5304 13.9704 22.2793 13.7193C22.0283 13.4683 21.6878 13.3272 21.3327 13.3272C20.9776 13.3272 20.6371 13.4683 20.386 13.7193L17.3327 16.786V3.99935C17.3327 3.64573 17.1922 3.30659 16.9422 3.05654C16.6921 2.80649 16.353 2.66602 15.9993 2.66602C15.6457 2.66602 15.3066 2.80649 15.0565 3.05654C14.8065 3.30659 14.666 3.64573 14.666 3.99935V16.786L11.6127 13.7193C11.4884 13.595 11.3408 13.4964 11.1783 13.4291C11.0159 13.3619 10.8418 13.3272 10.666 13.3272C10.4902 13.3272 10.3161 13.3619 10.1537 13.4291C9.99125 13.4964 9.84367 13.595 9.71935 13.7193C9.59503 13.8437 9.49642 13.9913 9.42914 14.1537C9.36186 14.3161 9.32723 14.4902 9.32723 14.666C9.32723 14.8418 9.36186 15.0159 9.42914 15.1783C9.49642 15.3408 9.59503 15.4884 9.71935 15.6127L15.0527 20.946Z" fill="white"/>
</svg>
