<?xml version="1.0" standalone="no"?>
<!DOCTYPE svg PUBLIC "-//W3C//DTD SVG 20010904//EN"
 "http://www.w3.org/TR/2001/REC-SVG-20010904/DTD/svg10.dtd">
<svg version="1.0" xmlns="http://www.w3.org/2000/svg"
 width="72.000000pt" height="72.000000pt" viewBox="0 0 72.000000 72.000000"
 preserveAspectRatio="xMidYMid meet">

<g transform="translate(0.000000,72.000000) scale(0.100000,-0.100000)"
fill="#000000" stroke="none">
<path d="M240 610 c0 -6 62 -10 165 -10 103 0 165 4 165 10 0 6 -62 10 -165
10 -103 0 -165 -4 -165 -10z"/>
<path d="M120 540 c0 -6 38 -10 95 -10 57 0 95 4 95 10 0 6 -38 10 -95 10 -57
0 -95 -4 -95 -10z"/>
<path d="M340 540 c0 -6 53 -10 140 -10 87 0 140 4 140 10 0 6 -53 10 -140 10
-87 0 -140 -4 -140 -10z"/>
<path d="M50 470 c0 -6 73 -10 200 -10 127 0 200 4 200 10 0 6 -73 10 -200 10
-127 0 -200 -4 -200 -10z"/>
<path d="M480 470 c0 -6 27 -10 60 -10 33 0 60 4 60 10 0 6 -27 10 -60 10 -33
0 -60 -4 -60 -10z"/>
<path d="M5 400 c-3 -5 0 -13 8 -16 23 -9 152 0 152 11 0 14 -151 19 -160 5z"/>
<path d="M195 400 c-3 -6 0 -12 7 -15 26 -10 508 0 511 10 3 14 -509 19 -518
5z"/>
<path d="M75 330 c-3 -5 0 -13 7 -15 26 -10 273 -1 271 10 -4 14 -269 19 -278
5z"/>
<path d="M387 334 c-18 -18 16 -24 144 -24 108 0 140 3 137 13 -3 8 -43 13
-139 15 -74 1 -138 0 -142 -4z"/>
<path d="M120 250 c0 -6 27 -10 60 -10 33 0 60 4 60 10 0 6 -27 10 -60 10 -33
0 -60 -4 -60 -10z"/>
<path d="M270 250 c0 -6 53 -10 140 -10 87 0 140 4 140 10 0 6 -53 10 -140 10
-87 0 -140 -4 -140 -10z"/>
<path d="M70 180 c0 -6 47 -10 120 -10 73 0 120 4 120 10 0 6 -47 10 -120 10
-73 0 -120 -4 -120 -10z"/>
<path d="M340 180 c0 -6 50 -10 130 -10 80 0 130 4 130 10 0 6 -50 10 -130 10
-80 0 -130 -4 -130 -10z"/>
<path d="M195 110 c-4 -7 53 -10 165 -10 112 0 169 3 165 10 -8 13 -322 13
-330 0z"/>
</g>
</svg>
