<?xml version="1.0" ?><!DOCTYPE svg  PUBLIC '-//W3C//DTD SVG 1.1//EN'  'http://www.w3.org/Graphics/SVG/1.1/DTD/svg11.dtd'><svg enable-background="new 0 0 1000 1000" height="1000px" version="1.1" viewBox="0 0 1000 1000" width="1000px" xml:space="preserve" xmlns="http://www.w3.org/2000/svg" xmlns:xlink="http://www.w3.org/1999/xlink"><g id="Snowman_x2C__deer_x2C__friends_x2C__friendship"><g id="XMLID_4502_"><g id="XMLID_4508_"><g id="XMLID_4509_"><path d="M392.878,400.524c-0.66-1.469-0.219-3.247,1.141-4.224      c1.553-1.113,3.713-0.757,4.828,0.793l91.336,19.072l48.363,49.6c4.266,1.787-0.935,10.555-3.797,11.516l-47.794-47.472      l-93.729-28.68C393.086,400.936,392.972,400.733,392.878,400.524z" fill="#263238" id="XMLID_4510_"/></g></g><g id="XMLID_4503_"><path d="M386.022,328.64l19.396,23.504c0,0-0.79,0.513,6.704-7.94     c8.133-9.177,16.256-9.19,20.751-5.894c3.8,2.788,2.125,5.329,2.125,5.329l-10.431,14.218l-12.029,36.163     c-1.047,2.549-2.903,4.681-5.281,6.071l-14.49,8.469c-3.631,2.121-8.033,2.466-11.95,0.933l-19.456-7.61     c-1.141-0.709-2.605-2.227-3.27-3.395l-25.077-34.617c-8.036-14.142,21.292-31.194,24.797-33.186     C361.315,328.693,380.69,319.257,386.022,328.64z" fill="#1B8C7E" id="XMLID_795_"/></g></g><g id="deer_and_snowman"><g id="XMLID_4497_"><g id="XMLID_4500_"><path d="M482.997,231.52l64.22-22.821l53.954-35.405l17.935-76.667      c-3.422-8.789-13.14-7.421-16.671-2.151l-13.209,72.341l-37.902,27.099l0.921-49.111c0.563-7.628-9.536-14.258-14.698-4.976      l1.912,59.902l-71.416,26.726c0,0,1.671,13.216,6.408,11.026C479.189,235.293,482.997,231.52,482.997,231.52z" fill="#FFD54F" id="XMLID_4501_"/></g><g id="XMLID_4498_"><path d="M443.157,225.975l-58.355-35.208l-45.781-45.483l-0.811-76.622      c5.111-7.927,14.359-4.643,16.768,1.228l-2.957,71.438l31.714,34.134l8.925-48.302c0.975-7.586,12.195-12.063,15.396-1.935      l-13.857,58.307l64.623,40.475c0,0-4.281,12.615-8.484,9.522C446.132,230.435,443.157,225.975,443.157,225.975z" fill="#FFD54F" id="XMLID_4499_"/></g></g><g id="XMLID_4493_"><path d="M550.435,617.182c0,47.191-36.465,121.265-111.074,160.7     c-5.521,40.583-12.549,149.106-12.549,149.106l-7.346-5.688l-7.961,4.413c3.409-19.665,6.811-166.323,6.811-166.323     s37.383-44.556,23.074-79.236c-14.668-35.55-25.049-86.028,19.365-102.723C508.702,559.408,544.06,579.346,550.435,617.182z" fill="#D69176" id="XMLID_4496_"/><g id="XMLID_4494_"><path d="M428.017,912.827c-0.76,8.736-1.205,14.161-1.205,14.161l-7.346-5.688l-7.961,4.413      c0.485-2.793,0.959-7.58,1.418-13.724c0,0,3.352-2.099,8.141-2.099C425.854,909.89,428.017,912.827,428.017,912.827z" fill="#263238" id="XMLID_4495_"/></g></g><g id="XMLID_4489_"><path d="M261.325,615.909c0,47.188,35.19,122.539,109.801,161.973     c5.521,40.583,15.811,149.106,15.811,149.106l7.344-5.688l7.961,4.413c-3.408-19.665-10.071-166.323-10.071-166.323     s-37.382-44.556-23.073-79.236c14.667-35.55,25.049-86.028-19.366-102.723C301.784,559.408,261.325,589.124,261.325,615.909z" fill="#D69176" id="XMLID_4492_"/><g id="XMLID_4490_"><path d="M385.729,912.827c0.76,8.736,1.207,14.161,1.207,14.161l7.344-5.688l7.961,4.413      c-0.484-2.793-0.959-7.58-1.418-13.724c0,0-3.35-2.099-8.141-2.099C387.895,909.89,385.729,912.827,385.729,912.827z" fill="#263238" id="XMLID_4491_"/></g></g><g id="XMLID_4484_"><g id="XMLID_4487_"><path d="M504.874,239.644c2.509,11.523,29.689,15.397,60.713,8.651      c31.024-6.747,51.637-33.082,51.637-33.082s-21.857-15.171-60.711-8.651C525.202,211.815,502.369,228.118,504.874,239.644z" fill="#D69176" id="XMLID_4488_"/></g><g id="XMLID_4485_"><path d="M515.22,248.641c2.727-11.311,20.373-25.949,47.146-31.771      c31.024-6.746,54.858-1.658,54.858-1.658s-20.612,26.335-51.637,33.082C545.14,252.741,526.362,252.571,515.22,248.641z" fill="#B76F58" id="XMLID_4486_"/></g></g><g id="XMLID_4479_"><g id="XMLID_4482_"><path d="M419.737,225.267c-1.608,11.683-28.41,17.643-59.861,13.311      c-31.453-4.331-54.037-28.997-54.037-28.997s20.622-16.814,59.863-13.311C397.325,199.091,421.347,213.583,419.737,225.267z" fill="#D69176" id="XMLID_4483_"/></g><g id="XMLID_4480_"><path d="M410.12,235.037c-3.592-11.066-22.316-24.299-49.459-28.037      c-31.451-4.332-54.822,2.581-54.822,2.581s22.584,24.667,54.037,28.997C380.606,241.434,399.312,239.816,410.12,235.037z" fill="#B76F58" id="XMLID_4481_"/></g></g><path d="M393.355,699.042c-121.074-18.223-138.459-64.067-131.216-108.806    c15.729-97.136,100.73-116.767,138.369-347.153c3.766-23.051,27.023-31.238,47.544-28.149l34.284,5.191    c20.52,3.089,40.766,18.815,37.15,40.896c-39.256,239.829,35.092,271.016,32.025,357.882    C550.017,661.251,514.428,717.264,393.355,699.042z" fill="#D69176" id="XMLID_4478_"/><path d="M504.822,686.526c0,0-0.626,0.426-1.801,1.225c-0.59,0.394-1.318,0.88-2.174,1.451    c-0.879,0.54-1.923,1.121-3.079,1.796c-0.582,0.331-1.188,0.699-1.841,1.049c-0.659,0.331-1.35,0.677-2.068,1.038    c-0.725,0.354-1.479,0.723-2.261,1.106c-0.783,0.383-1.626,0.701-2.48,1.074c-1.712,0.741-3.552,1.493-5.538,2.151    c-0.988,0.347-2.002,0.702-3.04,1.067c-1.047,0.334-2.134,0.619-3.236,0.942c-1.106,0.306-2.229,0.657-3.389,0.944    c-1.164,0.271-2.349,0.548-3.556,0.829c-2.409,0.594-4.939,0.969-7.529,1.439c-2.589,0.49-5.281,0.719-8.02,1.081    c-2.744,0.287-5.56,0.437-8.418,0.644c-2.862,0.047-5.772,0.159-8.715,0.146c-1.472-0.029-2.951-0.057-4.438-0.086    c-1.487-0.038-2.981-0.055-4.478-0.166c-5.989-0.31-12.056-0.788-18.096-1.465c-3.015-0.378-6.039-0.676-9.031-1.119    c-2.993-0.449-5.975-0.896-8.933-1.341c-5.855-0.97-11.67-2.09-17.221-3.29c-5.554-1.245-10.894-2.569-15.908-4.005    c-5.007-1.465-9.698-2.987-13.982-4.519c-4.27-1.575-8.159-3.081-11.535-4.585c-3.393-1.465-6.288-2.876-8.66-4.061    c-2.354-1.219-4.197-2.188-5.426-2.9c-1.237-0.695-1.897-1.066-1.897-1.066l0.195-0.349c0,0,0.67,0.348,1.926,1    c1.247,0.668,3.115,1.573,5.497,2.708c2.399,1.101,5.326,2.408,8.746,3.753c3.403,1.384,7.319,2.751,11.606,4.175    c4.305,1.38,9.01,2.737,14.022,4.025c5.024,1.246,10.345,2.467,15.886,3.554c5.558,1.057,11.273,2.013,17.185,2.843    c2.938,0.366,5.898,0.736,8.871,1.106c2.976,0.366,5.978,0.586,8.97,0.886c5.994,0.49,11.996,0.82,17.902,0.904    c2.953,0.087,5.88-0.042,8.771-0.012c2.89-0.039,5.737-0.208,8.541-0.298c2.795-0.189,5.544-0.376,8.233-0.558    c1.341-0.135,2.666-0.27,3.977-0.402c1.311-0.123,2.608-0.234,3.875-0.433c2.537-0.364,5.023-0.636,7.385-1.126    c1.188-0.209,2.357-0.416,3.504-0.617c1.145-0.218,2.25-0.5,3.344-0.739c1.092-0.25,2.16-0.494,3.205-0.734    c1.033-0.282,2.043-0.557,3.027-0.826c0.98-0.281,1.956-0.503,2.871-0.813c0.92-0.3,1.813-0.592,2.679-0.875    c0.864-0.289,1.718-0.528,2.513-0.834c0.795-0.306,1.562-0.601,2.298-0.884c0.741-0.277,1.452-0.542,2.132-0.796    c0.672-0.27,1.293-0.561,1.896-0.819c1.196-0.531,2.278-0.984,3.207-1.421c0.919-0.464,1.7-0.859,2.333-1.179    c1.273-0.629,1.953-0.965,1.953-0.965L504.822,686.526z" fill="#263238" id="XMLID_511_"/><g id="XMLID_4473_"><path d="M485.522,496.831c5.926,1.603,18.856-9.675,19.451-10.129     c-1.637-0.676-9.447-3.742-12.002-8.751c1.853-0.411,11.945-6.791,13.648-7.852c-4.666-3.284-11.974-8.027-13.692-11.163     c5.54-2.042,6.952-2.467,11.591-9.471c-2.719-2.484-9.891-4.593-11.928-10.555c5.979-1.257,11.611-6.378,11.59-6.37     c-0.198,0.047-12.715-13.23-13.241-16.646c5.72-0.816,10.853-6.519,10.829-6.511c-0.264,0.048-15.76-12.064-14.988-15.022     c3.436-0.785,7.921-6.984,7.906-6.98c-0.117,0.016-13.975-6.724-14.621-9.134c3.578-2.866,5.211-7.509,5.211-7.509     c-0.085,0.009-14.913-10.284-15.508-12.462c-3.096-9.994-12.15-6.599-26.946-8.858c-14.763-2.262-21.517-10.207-29.452-0.446     c-1.33,1.646-16.555,4.811-16.568,4.81c0,0,1.211,3.343,2.718,6.939c-1.21,3.204-12.715,9.843-12.765,9.838     c0,0,3.154,6.264,5.35,8.682c-0.695,1.789-15.46,8.152-15.559,8.139c-0.004-0.002,2.77,6.881,5.571,8.678     c-0.58,2.357-17.308,12.659-17.542,12.618c0,0,0.397,8.08,5.106,11.721c-8.283,9.6-17.952,12.883-17.925,12.881     c-0.016-0.008,3.557,6.575,8.256,8.641c-0.879,2.871-11.147,7.809-17.424,9.929c3.387,5.039,9.967,8.115,12.357,9.668     c-4.528,5.052-8.545,8.113-12.104,8.822c2.814,4.179,18.131,9.524,27.566,6.293c-2.431,5.456-10.881,14.279-10.932,14.255     c-0.131-0.036,12.562,7.425,24.074-2.522c1.01,6.127-12.732,22.385-12.9,22.321c-0.166,0.041,21.941,9.731,30.303,1.364     c-0.824,12.987,15.048,24.91,15.193,24.854c0.01,0.086,16.531-3.227,19.862-13.248c5.891,9.67,26.769,10.551,26.751,10.427     c0.064-0.013,6.337-10.443,4.688-17.462c9.393,5.325,20.124-1.536,27.962-6.145C492.785,509.658,487.21,501.969,485.522,496.831z     " fill="#FFD9AB" id="XMLID_4474_"/></g><g id="XMLID_4471_"><path d="M456.098,276.694c-46.255-14.915-71.446-26.397-81.495,6.14     c-9.051,29.307,35.38,54.066,71.613,59.521c36.233,5.453,78.32-7.211,81.383-27.555     C532.042,285.266,503.171,275.826,456.098,276.694z" fill="#FFD9AB" id="XMLID_4472_"/></g><g id="XMLID_4461_"><path d="M507.569,307.734c-13.498,5.213-28.909,11.352-59.814,4.997     c-30.905-6.354-44.377-21.397-54.545-30.019c-2.729,10.134-3.84,35.623,54.193,46.521     C505.437,340.131,507.612,307.718,507.569,307.734z" fill="#FFFFFF" id="XMLID_4468_"/><path d="M468.968,332.448c-6.217,0-13.415-0.667-21.749-2.232     c-26.755-5.025-44.181-13.715-51.793-25.829c-5.259-8.368-4.633-16.547-3.182-21.935c0.089-0.331,0.341-0.593,0.668-0.695     c0.328-0.102,0.684-0.03,0.944,0.192c1.283,1.088,2.618,2.277,4.033,3.538c9.836,8.762,23.306,20.762,50.066,26.264     c30.31,6.232,45.472,0.374,58.849-4.794l0.404-0.156c0.394-0.152,0.845-0.04,1.12,0.283c0.691,0.808-0.536,5.615-2.739,9.423     C501.794,323.069,492.284,332.448,468.968,332.448z M393.801,284.54c-1.035,4.948-1.071,11.799,3.318,18.784     c7.304,11.623,24.283,20.009,50.469,24.927c22.703,4.264,40.037,2.292,50.128-5.702c6.083-4.818,8.007-10.545,8.6-13.258     c-13.347,5.142-28.787,10.584-58.762,4.421c-27.288-5.611-40.989-17.817-50.994-26.73     C395.606,286.131,394.689,285.315,393.801,284.54z" fill="#37474F" id="XMLID_504_"/><path d="M507.642,307.921c-2.419,0.921-4.839,1.851-7.289,2.699     c-2.452,0.837-4.913,1.663-7.425,2.321l-1.881,0.496l-1.898,0.434c-1.26,0.315-2.539,0.541-3.816,0.775     c-2.558,0.46-5.142,0.77-7.734,0.977c-2.593,0.184-5.194,0.296-7.797,0.272c-1.303,0.026-2.603-0.035-3.903-0.095     c-1.301-0.052-2.604-0.1-3.897-0.233c-1.296-0.12-2.598-0.205-3.892-0.353l-3.872-0.512c-1.295-0.146-2.568-0.417-3.854-0.622     l-1.926-0.33l-0.982-0.173l-0.949-0.204l-3.797-0.817c-1.265-0.259-2.534-0.648-3.799-0.978     c-2.552-0.643-5.009-1.526-7.494-2.348l-3.667-1.406c-1.221-0.472-2.403-1.042-3.606-1.559c-1.211-0.504-2.369-1.122-3.544-1.704     c-0.585-0.297-1.177-0.58-1.755-0.889l-1.716-0.962l-1.717-0.963l-1.674-1.035l-1.672-1.038l-1.63-1.101l-1.627-1.107     l-1.586-1.162c-1.067-0.763-2.095-1.574-3.124-2.383c-4.122-3.229-7.958-6.782-11.865-10.075l2.386-0.744     c-0.742,2.911-1.05,5.933-0.763,8.893c0.268,2.957,1.081,5.858,2.435,8.501c1.335,2.653,3.128,5.08,5.233,7.232     c2.105,2.155,4.513,4.038,7.068,5.708c2.559,1.668,5.254,3.158,8.067,4.43c2.785,1.325,5.682,2.441,8.602,3.489     c1.48,0.476,2.94,1.005,4.437,1.439c1.501,0.418,2.978,0.909,4.488,1.301c3.005,0.84,6.046,1.569,9.101,2.245l4.567,0.94     c1.56,0.266,3.116,0.551,4.671,0.844c1.546,0.263,3.066,0.463,4.603,0.699c1.534,0.218,3.091,0.352,4.636,0.553     c1.548,0.172,3.099,0.25,4.651,0.381c1.551,0.056,3.104,0.136,4.657,0.165c1.549-0.031,3.111,0.026,4.654-0.104     c0.773-0.051,1.551-0.081,2.323-0.147l2.31-0.264c3.068-0.416,6.113-1.054,9.045-2.06c2.927-1.008,5.74-2.382,8.26-4.201     c2.497-1.839,4.727-4.086,6.409-6.722c0.835-1.319,1.552-2.717,2.113-4.177c0.278-0.731,0.533-1.472,0.727-2.23     c0.105-0.377,0.188-0.759,0.267-1.141c0.035-0.192,0.075-0.383,0.102-0.575l0.041-0.288l0.017-0.143c0,0,0.005-0.092,0.009-0.027     c0.001,0.025,0.047,0.107,0.132,0.121C507.578,307.972,507.619,307.94,507.642,307.921z M507.497,307.548     c0.021,0.006,0.062-0.002,0.14,0.035c0.083,0.039,0.128,0.146,0.128,0.195c0.003,0.115-0.003,0.076-0.004,0.121l-0.014,0.152     l-0.036,0.301c-0.021,0.201-0.058,0.397-0.089,0.595c-0.069,0.395-0.146,0.788-0.243,1.176c-0.179,0.781-0.42,1.544-0.686,2.299     c-0.536,1.508-1.233,2.958-2.056,4.332c-1.607,2.78-3.801,5.203-6.294,7.244c-2.482,2.064-5.318,3.698-8.297,4.957     c-2.984,1.257-6.111,2.137-9.275,2.796l-2.385,0.443c-0.797,0.126-1.599,0.214-2.399,0.323c-1.601,0.246-3.211,0.302-4.821,0.446     c-1.609,0.082-3.223,0.124-4.834,0.132c-1.606-0.052-3.221-0.054-4.826-0.151c-1.604-0.116-3.207-0.192-4.812-0.379     c-1.599-0.195-3.223-0.361-4.804-0.582c-1.565-0.238-3.129-0.482-4.688-0.747l-4.739-0.93c-3.131-0.662-6.253-1.382-9.352-2.218     c-3.105-0.815-6.16-1.836-9.198-2.906c-3.021-1.131-6.025-2.323-8.933-3.768c-2.924-1.402-5.751-3.042-8.451-4.89     c-2.698-1.85-5.264-3.944-7.532-6.37c-2.267-2.42-4.225-5.182-5.667-8.218c-0.392-0.743-0.658-1.547-0.987-2.32     c-0.253-0.802-0.562-1.588-0.746-2.41c-0.452-1.622-0.707-3.294-0.835-4.965c-0.264-3.351,0.142-6.715,1.02-9.915l0.007-0.027     c0.214-0.781,1.021-1.241,1.802-1.026c0.219,0.06,0.417,0.171,0.577,0.31c3.951,3.451,7.659,7.009,11.638,10.238     c0.993,0.808,1.983,1.62,3.011,2.38l1.526,1.161l1.564,1.105l1.568,1.101l1.61,1.038l1.611,1.037l1.654,0.966l1.654,0.967     c0.558,0.311,1.13,0.596,1.694,0.895c1.135,0.586,2.253,1.209,3.426,1.721c1.166,0.524,2.309,1.101,3.494,1.583l3.561,1.438     c2.414,0.844,4.822,1.758,7.285,2.422c1.234,0.34,2.428,0.765,3.693,1.058l3.771,0.928l0.943,0.232l0.925,0.19l1.893,0.382     c1.265,0.24,2.52,0.546,3.794,0.727l3.813,0.618c1.271,0.196,2.552,0.329,3.828,0.497c1.277,0.182,2.56,0.278,3.844,0.379     c1.283,0.109,2.567,0.22,3.854,0.244c2.574,0.129,5.153,0.114,7.728-0.009c2.573-0.135,5.145-0.372,7.695-0.759     c1.274-0.198,2.552-0.387,3.813-0.666c1.271-0.233,2.523-0.551,3.773-0.878c2.5-0.646,4.973-1.41,7.406-2.281     C502.676,309.431,505.084,308.486,507.497,307.548z" fill="#263238" id="XMLID_503_"/></g><g id="XMLID_4459_"><path d="M474.675,268.958c-3.406-0.513-6.713-0.439-9.752,0.125     c-5.138,0.952-10.383,0.162-15.014-2.259c-2.74-1.433-5.881-2.479-9.287-2.99c-12.422-1.869-23.606,4.022-24.982,13.161     c-0.377,2.513,2.175,5.864,6.074,9.401c17.48,15.857,43.018,19.701,64.391,9.69c4.768-2.233,8.192-4.684,8.57-7.197     C496.05,279.75,487.097,270.828,474.675,268.958z" fill="#263238" id="XMLID_4460_"/></g><g id="XMLID_4437_"><path d="M419.418,412.908c0.606,1.015,1.253,2.305,1.997,3.772     c0.698,1.496,1.486,3.178,2.22,5.073c0.806,1.859,1.464,3.968,2.255,6.146c0.64,2.241,1.502,4.53,2.104,7     c0.328,1.224,0.662,2.468,0.998,3.727c0.32,1.264,0.584,2.561,0.882,3.857c0.281,1.301,0.604,2.601,0.856,3.924     c0.24,1.326,0.482,2.656,0.725,3.987c0.507,2.653,0.875,5.336,1.201,7.979c0.174,1.319,0.346,2.627,0.515,3.919     c0.126,1.3,0.291,2.578,0.441,3.836c0.319,2.514,0.775,4.922,1.086,7.23c0.187,1.323,0.379,2.599,0.576,3.83l3.949-0.351     c-0.05-1.274-0.114-2.594-0.196-3.962c-0.066-2.366-0.451-4.835-0.768-7.394c-0.192-1.275-0.377-2.573-0.605-3.88     c-0.248-1.305-0.556-2.618-0.84-3.943c-0.582-2.648-1.115-5.346-1.834-8.008c-0.329-1.336-0.659-2.672-0.987-4.002     c-0.338-1.328-0.751-2.634-1.118-3.938c-0.384-1.3-0.732-2.596-1.139-3.861c-0.422-1.26-0.839-2.504-1.25-3.728     c-0.775-2.458-1.763-4.764-2.604-6.969c-0.981-2.158-1.815-4.23-2.784-6.06c-0.895-1.86-1.832-3.508-2.659-4.965     c-0.871-1.435-1.633-2.681-2.35-3.653c-1.381-1.969-2.35-2.977-2.35-2.977l-0.34,0.295c0,0,0.215,0.269,0.57,0.782     C418.317,411.103,418.843,411.872,419.418,412.908z" fill="#1B8C7E" id="XMLID_4458_"/><g id="XMLID_4455_"><path d="M400.147,407.063c0.107-0.054,2.822,6.183,5.832,6.4      c2.033,0.085,4.774-1.461,6.898-3.168c-1.904,1.991-4.037,4.381-4.666,6.431c-1.041,3.096,4.328,8.156,4.441,8.169      c-0.039,0.103,7.81,0.048,8.488-3.502c0.451-2.241-0.684-5.801-1.86-8.866c1.468,2.947,3.437,6.171,5.509,7.371      c3.277,1.893,8.506-3.321,8.4-3.325c0.009-0.083-0.199-6.955-3.121-8.489c-1.936-1.045-5.15-1.36-7.958-1.474      c2.747-0.232,5.783-0.926,7.163-2.269c1.979-2.032-0.438-8.304-0.32-8.363c0.014,0.097-5.654-4.243-8.159-2.461      c-1.606,1.204-2.683,4.369-3.257,7.313c0.268-3.054,0.45-6.546-0.346-8.732c-1.17-3.442-8.394-3.769-8.411-3.664      c-0.102-0.043-4.776,5.058-3.057,8.24c1.063,2.069,3.747,4.426,6.163,6.412c-2.557-1.7-5.635-3.222-7.643-3.019      C401.229,400.45,400.236,407.142,400.147,407.063z" fill="#7986CB" id="XMLID_4456_"/></g><ellipse cx="417.815" cy="407" fill="#E8EAF6" id="XMLID_4454_" rx="2.07" ry="3.033" transform="matrix(-0.9078 0.4193 -0.4193 -0.9078 967.7941 601.2742)"/><path d="M480.517,386.966c-0.096-0.043-0.206-0.013-0.269,0.065c0,0-1.264,1.584-3.37,4.469     c-1.031,1.453-2.445,3.142-3.688,5.292c-1.275,2.133-2.718,4.546-4.237,7.217c-1.46,2.695-2.842,5.712-4.357,8.885     c-0.8,1.571-1.436,3.255-2.118,4.967c-0.694,1.707-1.346,3.472-2.035,5.258c-1.291,3.603-2.386,7.4-3.543,11.239     c-1.056,3.868-2.082,7.806-3.1,11.742c-0.895,3.966-1.903,7.903-2.689,11.822c-0.791,3.918-1.616,7.762-2.242,11.514     c-0.416,2.265-0.801,4.48-1.15,6.647l2.415-0.214c0.033-0.162,0.065-0.319,0.098-0.482c0.392-1.776,0.791-3.591,1.196-5.436     c0.777-3.698,1.756-7.477,2.702-11.326c0.94-3.85,2.103-7.706,3.15-11.587c1.203-3.837,2.368-7.684,3.647-11.422     c1.402-3.695,2.549-7.411,3.929-10.902c1.362-3.493,2.485-6.953,3.761-10.142c0.639-1.596,1.26-3.148,1.861-4.649     c0.602-1.502,1.098-2.999,1.727-4.359c1.242-2.728,2.33-5.263,3.301-7.516c0.447-1.147,0.965-2.167,1.454-3.104     c0.464-0.955,0.89-1.832,1.276-2.624c1.558-3.167,2.389-5.04,2.389-5.04l0.007-0.016     C480.681,387.15,480.63,387.017,480.517,386.966z" fill="#1B8C7E" id="XMLID_4453_"/><path d="M446.608,476.183c0.109-0.431,0.215-0.846,0.328-1.287     c0.562-2.076,0.883-4.315,1.346-6.614c0.293-2.317,0.74-4.708,0.932-7.158c0.213-2.448,0.498-4.939,0.55-7.436     c0.13-2.497,0.247-4.999,0.227-7.459c0.015-2.461,0.065-4.896-0.169-7.227c-0.225-2.332-0.418-4.592-0.791-6.707     c-0.379-2.114-0.777-4.104-1.181-5.932c-0.358-1.835-0.829-3.49-1.276-4.947c-0.441-1.458-0.844-2.724-1.2-3.759     c-0.7-2.072-1.179-3.233-1.179-3.233c-0.049-0.117-0.182-0.173-0.299-0.125c-0.086,0.035-0.14,0.117-0.143,0.205v0.01     c0,0-0.037,1.267,0.033,3.442c0.03,1.088,0.096,2.402,0.191,3.902c0.033,0.752,0.117,1.543,0.18,2.381     c0.04,0.839,0.082,1.722,0.127,2.643c0.092,1.839,0.23,3.822,0.418,5.91c0.121,2.095,0.232,4.299,0.441,6.572     c0.27,2.271,0.396,4.62,0.629,7.009c0.271,2.391,0.313,4.824,0.389,7.261c0.117,2.44,0.005,4.871-0.039,7.273     c-0.021,2.405-0.3,4.748-0.43,7.036c-0.284,2.263-0.486,4.474-0.843,6.539c-0.105,0.647-0.204,1.261-0.306,1.885L446.608,476.183     z" fill="#1B8C7E" id="XMLID_4452_"/><path d="M460.274,416.623c-0.092-0.013-0.179,0.032-0.226,0.106c0,0-0.663,1.066-1.695,2.995     c-0.521,0.962-1.127,2.144-1.804,3.51c-0.682,1.364-1.418,2.918-2.074,4.669c-0.699,1.736-1.42,3.634-2.143,5.656     c-0.716,2.025-1.279,4.222-1.885,6.485c-0.617,2.261-0.967,4.67-1.358,7.101c-0.427,2.423-0.724,4.91-1.007,7.394     c-0.36,2.471-0.49,4.976-0.684,7.425c-0.215,2.448-0.167,4.88-0.26,7.214c0.076,2.344,0.024,4.605,0.237,6.746     c0.005,0.066,0.011,0.126,0.017,0.191l2.109-0.188c0-0.023,0-0.045,0-0.069c-0.012-2.095,0.154-4.309,0.246-6.588     c0.249-2.278,0.36-4.635,0.736-7.01c0.354-2.376,0.643-4.793,1.16-7.18c0.478-2.392,0.919-4.784,1.58-7.098     c0.625-2.319,1.137-4.615,1.777-6.81c0.58-2.207,1.053-4.363,1.517-6.41c0.53-2.028,0.994-3.961,1.388-5.76     c0.195-0.901,0.383-1.765,0.561-2.586c0.199-0.816,0.412-1.583,0.57-2.319c0.341-1.463,0.621-2.749,0.831-3.817     c0.429-2.134,0.601-3.389,0.601-3.389l0.001-0.01C460.487,416.755,460.4,416.64,460.274,416.623z" fill="#1B8C7E" id="XMLID_4451_"/><path d="M443.887,476.425c0.554-1.865,1.085-3.79,1.676-5.749     c0.817-3.131,1.696-6.364,2.46-9.679c0.705-3.328,1.555-6.685,2.109-10.102c0.314-1.702,0.63-3.404,0.943-5.1     c0.309-1.697,0.502-3.406,0.755-5.092c0.234-1.69,0.467-3.367,0.696-5.023c0.141-1.667,0.279-3.314,0.416-4.934     c0.104-1.623,0.206-3.219,0.305-4.78c0.023-1.566,0.037-3.099,0.02-4.59c-0.008-1.491-0.014-2.94-0.021-4.343     c0.012-1.401-0.174-2.754-0.245-4.052c-0.188-2.596-0.437-4.968-0.622-7.066c-0.318-2.091-0.62-3.907-0.9-5.397     c-0.52-2.983-0.871-4.67-0.871-4.67c-0.017-0.081-0.096-0.133-0.178-0.117c-0.07,0.015-0.12,0.078-0.119,0.148v0.011     c0,0,0.008,1.736,0.117,4.742c0.035,1.505,0.117,3.325,0.236,5.405c-0.012,2.091-0.081,4.449-0.064,7.01     c0.064,2.561-0.111,5.336-0.235,8.267c-0.074,1.465-0.12,2.971-0.158,4.509c-0.125,1.535-0.251,3.104-0.38,4.699     c-0.098,1.598-0.195,3.222-0.295,4.866c-0.167,1.64-0.336,3.3-0.507,4.973c-0.183,1.673-0.3,3.368-0.536,5.055     c-0.24,1.688-0.482,3.381-0.724,5.075c-0.438,3.398-1.17,6.747-1.761,10.068c-0.648,3.31-1.415,6.543-2.125,9.679     c-0.57,2.163-1.086,4.285-1.626,6.332L443.887,476.425z" fill="#1B8C7E" id="XMLID_4450_"/><path d="M478.308,405.774c-0.094-0.039-0.199-0.011-0.261,0.063c0,0-1.12,1.32-2.975,3.733     c-0.932,1.204-2.04,2.686-3.298,4.403c-1.131,1.787-2.405,3.814-3.744,6.06c-0.646,1.134-1.422,2.269-2.039,3.533     c-0.629,1.26-1.279,2.563-1.947,3.902c-0.678,1.337-1.346,2.724-2.02,4.146c-0.617,1.444-1.186,2.947-1.794,4.462     c-0.571,1.529-1.151,3.084-1.739,4.658c-0.488,1.606-0.982,3.233-1.479,4.872c-0.477,1.645-1.021,3.281-1.467,4.953     c-0.436,1.673-0.873,3.353-1.312,5.033c-0.947,3.339-1.604,6.749-2.376,10.069c-0.715,3.334-1.289,6.641-1.876,9.83     c-0.02,0.134-0.042,0.265-0.062,0.398l2.703-0.24c0.709-3.021,1.414-6.138,2.251-9.274c0.923-3.238,1.731-6.561,2.825-9.798     c0.523-1.624,1.047-3.249,1.567-4.867c0.522-1.616,1.165-3.185,1.743-4.759c0.587-1.57,1.17-3.128,1.744-4.667     c0.623-1.518,1.238-3.017,1.844-4.492c0.569-1.488,1.154-2.942,1.674-4.387c0.608-1.406,1.195-2.785,1.741-4.142     c1.118-2.7,2.112-5.289,3.224-7.586c1.068-2.32,1.996-4.482,2.826-6.402c0.936-1.857,1.74-3.492,2.383-4.855     c1.295-2.72,1.976-4.333,1.976-4.333l0.006-0.014C478.476,405.956,478.423,405.823,478.308,405.774z" fill="#1B8C7E" id="XMLID_4449_"/><path d="M436.688,477.065c16.009-37.567,1.629-63.141,1.629-63.141s-9.111,26.023-3.258,63.286     L436.688,477.065z" fill="#26A69A" id="XMLID_4448_"/><path d="M485.982,416.327c0,0-5.175,26.502-39.377,42.382     C464.11,429.081,485.982,416.327,485.982,416.327z" fill="#26A69A" id="XMLID_4447_"/><g id="XMLID_4438_"><path d="M442.986,384.299c1.843,3.761,8.024,7.626,8.024,7.626s1.098-6.505-0.746-10.266      c-1.844-3.761-4.968-6.219-6.978-5.49C441.276,376.898,441.142,380.538,442.986,384.299z" fill="#FF5252" id="XMLID_4446_"/><path d="M453.075,382.145c-2.291,3.046-2.064,9.78-2.064,9.78s6.545-1.664,8.837-4.709      c2.292-3.046,2.633-6.65,0.763-8.05C458.74,377.765,455.366,379.099,453.075,382.145z" fill="#FF5252" id="XMLID_4445_"/><path d="M461.101,389.771c-4.135-0.715-10.09,2.153-10.09,2.153s5.447,4.841,9.583,5.556      c4.135,0.715,7.601-0.431,7.741-2.56C468.474,392.792,465.235,390.486,461.101,389.771z" fill="#FF5252" id="XMLID_4444_"/><path d="M459.036,399.551c-1.844-3.761-8.025-7.626-8.025-7.626s-1.098,6.505,0.746,10.266      s4.969,6.219,6.979,5.49S460.88,403.312,459.036,399.551z" fill="#FF5252" id="XMLID_4443_"/><path d="M448.946,401.705c2.291-3.046,2.064-9.78,2.064-9.78s-6.545,1.664-8.836,4.71      s-2.633,6.65-0.763,8.05S446.655,404.75,448.946,401.705z" fill="#FF5252" id="XMLID_4442_"/><path d="M440.921,394.079c4.136,0.715,10.09-2.154,10.09-2.154s-5.447-4.841-9.582-5.556      c-4.135-0.715-7.602,0.431-7.74,2.56C433.548,391.058,436.786,393.363,440.921,394.079z" fill="#FF5252" id="XMLID_4441_"/><path d="M448.133,392.86c0.777,1.586,2.677,2.412,4.241,1.845s2.203-2.313,1.426-3.899      c-0.777-1.586-2.677-2.412-4.242-1.845C447.993,389.529,447.355,391.274,448.133,392.86z" fill="#FF8A80" id="XMLID_4439_"/></g></g><path d="M301.998,321.161c0,0,18.38,2.581,36.368-16.081    C315.188,309.81,301.998,321.161,301.998,321.161z" fill="#26A69A" id="XMLID_4436_"/><g id="XMLID_4428_"><g id="XMLID_4434_"><polygon fill="#F44336" id="XMLID_4435_" points="480.201,510.315 437.065,514.149 425.562,445.472 477.179,440.413     "/></g><g id="XMLID_4432_"><polygon fill="#E83A3A" id="XMLID_4433_" points="480.201,510.315 437.065,514.149 425.562,445.472 477.179,440.413     "/></g><g id="XMLID_4429_"><g id="XMLID_4430_"><path d="M433.729,503.607c-4.051,0.36-11.881,0.362-18.117-3.829       c-4.375-2.941-7.159-7.347-8.274-13.096c-1.403-7.22-0.22-13.398,3.515-18.357c7.045-9.36,20.613-10.668,21.188-10.719       l0.537,6.038c-0.109,0.01-11.5,1.144-16.9,8.347c-2.644,3.528-3.449,8.081-2.389,13.538       c2.965,15.275,21.186,11.931,21.961,11.775l1.174,5.945C436.285,503.278,435.286,503.469,433.729,503.607z" fill="#E83A3A" id="XMLID_4431_"/></g></g></g><g id="XMLID_4422_"><g id="XMLID_4425_"><g id="XMLID_4426_"><path d="M631.688,510.959l-3.304-13.597l-13.941,5.315       c5.742-11.961,15.222-48.021,16.459-64.763c3.016-40.833-90.172-58.988-124.674-58.164c0,0-7.334-0.019-7.846-9.184       c-0.511-9.165,7.39-9.942,7.39-9.942c1.486-0.037,18.415-2.781,55.123,3.815c52.746,9.476,91.243,45.671,89.087,74.885       C648.222,463.098,632.595,509.073,631.688,510.959z" fill="#D69176" id="XMLID_4427_"/></g></g><g id="XMLID_4423_"><path d="M631.714,484.741c-4.762-1.698-9.361-1.023-10.629-0.786      c-2.331,7.876-4.699,14.678-6.643,18.723h0.001l13.94-5.315l3.304,13.597c0.394-0.819,3.554-9.928,7.151-21.916      C637.599,487.734,635.427,486.067,631.714,484.741z" fill="#263238" id="XMLID_4424_"/></g></g><path d="M447.942,253.745c-0.702,0-1.329-0.495-1.47-1.21c-0.532-2.701-2.693-4.783-5.377-5.182    c-2.274-0.336-4.576,0.591-6.015,2.422c-0.513,0.651-1.456,0.765-2.106,0.253c-0.651-0.512-0.765-1.455-0.253-2.106    c2.102-2.676,5.484-4.033,8.813-3.536c3.937,0.584,7.104,3.625,7.881,7.568c0.16,0.813-0.369,1.602-1.182,1.762    C448.137,253.736,448.039,253.745,447.942,253.745z" fill="#263238" id="XMLID_502_"/><path d="M471.254,257.683c-0.205,0-0.414-0.043-0.614-0.132c-0.756-0.34-1.093-1.228-0.753-1.983    c1.647-3.666,5.423-5.918,9.385-5.595c3.359,0.27,6.345,2.352,7.79,5.433c0.352,0.75,0.028,1.643-0.722,1.995    c-0.75,0.352-1.643,0.029-1.995-0.721c-0.989-2.109-3.025-3.533-5.313-3.717c-2.695-0.217-5.279,1.323-6.408,3.835    C472.373,257.353,471.826,257.682,471.254,257.683z" fill="#263238" id="XMLID_501_"/><path d="M408.092,304.92c0,0-2.001-0.323-5.529-0.707c-1.76-0.212-3.908-0.392-6.367-0.625    c-2.465-0.164-5.238-0.43-8.277-0.549c-1.517-0.074-3.098-0.151-4.733-0.231c-1.638-0.039-3.33-0.079-5.069-0.12    c-3.479-0.128-7.149-0.04-10.942-0.066c-1.897,0.022-3.824,0.111-5.775,0.164c-1.95,0.081-3.927,0.077-5.911,0.243    c-3.971,0.297-8.014,0.442-12.027,0.938c-2.008,0.216-4.017,0.431-6.017,0.646c-1.999,0.219-3.973,0.581-5.938,0.867    c-1.964,0.297-3.912,0.592-5.836,0.884c-1.91,0.37-3.796,0.736-5.651,1.095c-1.861,0.331-3.69,0.657-5.48,0.976    c-1.775,0.394-3.512,0.779-5.202,1.154c-3.385,0.738-6.605,1.373-9.509,2.223c-2.921,0.786-5.616,1.466-8.007,2.078    c-2.341,0.755-4.392,1.399-6.092,1.908c-3.389,1.05-5.355,1.602-5.355,1.602l-0.115-0.277c0,0,1.834-0.871,5.098-2.312    c1.626-0.736,3.614-1.604,5.905-2.583c2.344-0.824,4.994-1.749,7.9-2.722c0.728-0.243,1.47-0.492,2.227-0.745    c0.379-0.126,0.761-0.254,1.146-0.383c0.392-0.107,0.786-0.215,1.185-0.323c1.599-0.416,3.251-0.847,4.95-1.289    c1.703-0.434,3.452-0.879,5.239-1.335c1.808-0.364,3.663-0.691,5.546-1.045c1.887-0.326,3.806-0.657,5.748-0.992    c1.957-0.23,3.938-0.463,5.935-0.698c1.998-0.21,4.003-0.499,6.028-0.661c2.026-0.152,4.06-0.305,6.094-0.458    c4.061-0.387,8.142-0.421,12.146-0.609c2.002-0.111,3.993-0.052,5.958-0.079c1.964,0,3.904-0.034,5.813-0.004    c1.908,0.052,3.783,0.104,5.619,0.155c0.918,0.026,1.825,0.052,2.723,0.078c0.895,0.054,1.779,0.107,2.652,0.16    c1.745,0.106,3.442,0.209,5.084,0.309c1.639,0.141,3.222,0.277,4.742,0.407c3.041,0.232,5.814,0.602,8.277,0.857    c2.457,0.324,4.6,0.584,6.357,0.862c3.519,0.514,5.514,0.913,5.514,0.913L408.092,304.92z" fill="#1B8C7E" id="XMLID_498_"/><path d="M434.801,318.105c0,0-0.626-0.122-1.721-0.335c-0.546-0.138-1.207-0.305-1.967-0.497    c-0.744-0.232-1.598-0.46-2.507-0.771c-0.911-0.309-1.9-0.64-2.926-1.043c-1.039-0.374-2.099-0.851-3.207-1.319    c-1.097-0.494-2.232-1.002-3.364-1.563c-1.136-0.555-2.283-1.133-3.411-1.75c-1.147-0.582-2.246-1.251-3.362-1.856    c-1.091-0.646-2.161-1.29-3.162-1.971c-0.989-0.696-1.938-1.38-2.779-2.109c-0.426-0.357-0.839-0.703-1.239-1.039    c-0.382-0.358-0.75-0.705-1.104-1.037c-0.718-0.651-1.316-1.314-1.848-1.896c-0.263-0.293-0.509-0.567-0.735-0.821    c-0.218-0.263-0.402-0.52-0.577-0.743c-0.695-0.894-1.06-1.425-1.06-1.425l0.146-0.137c0,0,0.533,0.374,1.408,1.062    c0.437,0.345,0.98,0.747,1.605,1.201c0.617,0.465,1.307,0.989,2.084,1.531c1.525,1.117,3.344,2.359,5.283,3.7    c0.945,0.707,1.975,1.364,2.977,2.1c1.035,0.687,2.076,1.404,3.16,2.054c1.072,0.671,2.166,1.305,3.252,1.917    c1.082,0.618,2.17,1.183,3.223,1.734c2.12,1.066,4.125,2.02,5.88,2.754c0.873,0.378,1.694,0.668,2.414,0.956    c0.73,0.247,1.367,0.462,1.892,0.64c1.075,0.298,1.689,0.469,1.689,0.469L434.801,318.105z" fill="#263238" id="XMLID_495_"/><path d="M327.224,302.226c0,0-18.879,2.95-28.49-11.653    C321.911,295.301,327.224,302.226,327.224,302.226z" fill="#26A69A" id="XMLID_4413_"/><g id="XMLID_4411_"><path d="M390.638,498.313c-20.128,0-46.933-5.924-67.174-17.753     c-24.211-14.148-37.037-34.74-37.092-59.546c-0.035-16.485,5.785-30.457,17.301-41.527c21.843-20.997,58.855-25.24,75.363-24.552     c5.41,0.226,9.613,4.794,9.389,10.204c-0.228,5.41-4.803,9.62-10.205,9.387c-10.952-0.456-43.258,2.083-60.958,19.097     c-7.615,7.321-11.306,16.267-11.281,27.349c0.038,17.714,9.249,32.067,27.376,42.66c23.949,13.996,55.074,16.299,66.932,14.427     c1.822-0.288,19.166-5.563,19.166-5.563l-4.553,11.08l10.634,7.061c0,0-16.612,5.583-19.847,6.282     C401.39,497.847,396.275,498.312,390.638,498.313z" fill="#D69176" id="XMLID_4412_"/></g><path d="M415.611,494.117c0,0-0.614,0.253-1.765,0.726c-1.151,0.477-2.854,1.125-5.035,1.941    c-1.081,0.39-2.327,0.875-3.719,1.218c-1.396,0.347-2.892,0.661-4.515,0.935c-3.246,0.522-6.921,0.899-10.976,0.957    c-0.994,0.011-2.009,0.022-3.043,0.033c-1.055-0.023-2.13-0.046-3.223-0.069c-2.176-0.115-4.413-0.222-6.707-0.462    c-4.593-0.408-9.409-1.131-14.324-2.19c-4.904-1.103-9.928-2.448-14.919-4.164c-4.992-1.709-9.977-3.701-14.817-6.006    l-1.818-0.858l-1.786-0.924c-1.188-0.622-2.387-1.216-3.535-1.902c-1.16-0.687-2.316-1.281-3.469-2.04    c-1.105-0.706-2.207-1.41-3.305-2.111c-4.402-2.991-8.473-6.24-12.12-9.712c-3.606-3.517-6.752-7.26-9.363-11.061    c-2.624-3.801-4.57-7.722-6.175-11.395c-0.686-1.887-1.465-3.648-1.931-5.419c-0.262-0.874-0.517-1.726-0.765-2.554    c-0.192-0.842-0.379-1.66-0.56-2.453c-0.169-0.795-0.37-1.556-0.495-2.304c-0.113-0.75-0.224-1.473-0.329-2.167    c-0.104-0.694-0.205-1.359-0.302-1.995c-0.053-0.641-0.104-1.252-0.151-1.832c-0.083-1.161-0.209-2.192-0.228-3.095    c-0.015-0.903-0.026-1.67-0.036-2.293c-0.02-1.244-0.03-1.907-0.03-1.907l0.4-0.001c0,0,0.035,0.659,0.102,1.894    c0.033,0.617,0.074,1.378,0.121,2.272c0.053,0.894,0.217,1.913,0.342,3.057c0.069,0.572,0.142,1.173,0.218,1.805    c0.119,0.625,0.243,1.278,0.373,1.96c0.13,0.68,0.265,1.389,0.405,2.124c0.15,0.732,0.378,1.475,0.573,2.25    c0.207,0.772,0.42,1.569,0.64,2.389c0.275,0.803,0.557,1.63,0.847,2.478c0.52,1.717,1.353,3.415,2.089,5.231    c1.706,3.531,3.742,7.273,6.432,10.869c2.688,3.586,5.807,7.152,9.411,10.457c3.636,3.27,7.689,6.316,11.982,9.063    c1.116,0.67,2.237,1.342,3.362,2.017c1.056,0.657,2.26,1.237,3.385,1.862c1.132,0.635,2.317,1.18,3.488,1.751l1.762,0.849    l1.795,0.784c4.787,2.081,9.697,3.893,14.632,5.349c4.938,1.439,9.844,2.685,14.642,3.656c4.782,1.04,9.452,1.81,13.895,2.421    c2.218,0.33,4.397,0.527,6.486,0.727c1.043,0.088,2.069,0.175,3.076,0.26c1.029,0.053,2.04,0.105,3.029,0.156    c3.881,0.185,7.487,0.142,10.646-0.08c3.189-0.219,5.851-0.61,8.104-1.179c4.507-1.082,7.081-1.7,7.081-1.7L415.611,494.117z" fill="#263238" id="XMLID_492_"/><path d="M414.901,483.573l4.553-11.08c0,0-17.344,5.275-19.166,5.563    c-0.696,0.11-0.335,6.044,0.924,9.994c1.259,3.949,1.731,5.977,4.477,8.866c3.233-0.699,19.847-6.282,19.847-6.282    L414.901,483.573z" fill="#263238" id="XMLID_4407_"/><path d="M400.301,478.13c0.185,1.738,0.545,4.899,1.017,8.021    c0.525,3.472,2.945,8.319,4.128,10.537c11.715-2.947,18.723-5.596,20.09-6.054l-10.634-7.061l4.553-11.08    C419.292,472.549,412.046,475.196,400.301,478.13z" fill="#263238" id="XMLID_4406_"/></g><g id="snowman_2_"><g id="XMLID_4352_"><g id="XMLID_4400_"><g id="XMLID_4403_"><g id="XMLID_4404_"><path d="M564.958,908.277c-0.984-0.039-1.941-0.496-2.59-1.332        c-0.745-0.961-18.075-23.972-5.879-64.296c0.554-1.831,2.486-2.86,4.316-2.31c1.826,0.553,4.243,2.54,3.691,4.368        c-11.107,36.716,2.695,57.153,3.346,58.008c1.156,1.516,0.875,3.686-0.639,4.847        C566.535,908.076,565.739,908.309,564.958,908.277z" fill="#263238" id="XMLID_4405_"/></g></g><g id="XMLID_4401_"><path d="M569.482,907.921c-0.112,10.376-78.065,9.53-77.952-0.845       c0.111-10.377,17.653-18.6,39.18-18.366C552.235,888.944,569.595,897.544,569.482,907.921z" fill="#263238" id="XMLID_4402_"/></g></g><g id="XMLID_4398_"><path d="M782.688,706.785c0,91.205-74.495,165.139-166.39,165.139      c-91.898,0-166.395-73.935-166.395-165.139c0-91.206,74.496-165.142,166.395-165.142      C708.192,541.643,782.688,615.579,782.688,706.785z" fill="#E8EAF6" id="XMLID_4399_"/></g><g id="XMLID_4396_"><path d="M656.81,451.852c32.485,33.58,73.738,118.789,43.068,148.459      c-30.669,29.672-168.129,26.626-200.615-6.956c-32.486-33.579,11.336-117.941,42.005-147.61      C571.938,416.074,624.324,418.271,656.81,451.852z" fill="#E8EAF6" id="XMLID_4397_"/></g><path d="M702.311,527.448c0,0,0.359,0.782,1.032,2.25c0.665,1.473,1.606,3.662,2.689,6.486     c1.091,2.824,2.312,6.3,3.481,10.375c0.593,2.036,1.15,4.225,1.667,6.557c0.524,2.33,1.016,4.802,1.364,7.417     c0.368,2.611,0.666,5.355,0.789,8.227c0.098,2.87,0.051,5.862-0.244,8.947c-0.283,3.085-0.857,6.262-1.824,9.444     c-0.936,3.188-2.359,6.356-4.264,9.328l-0.731,1.106l-0.804,1.066c-0.518,0.725-1.133,1.382-1.713,2.068     c-0.286,0.347-0.621,0.651-0.932,0.979l-0.475,0.482l-0.24,0.239l-0.061,0.06l-0.158,0.148l-0.117,0.1     c-0.625,0.534-1.252,1.07-1.882,1.607c-3.003,2.365-6.026,4.021-9.23,5.57c-6.39,3.002-13.126,5.054-19.91,6.671     c-6.782,1.637-13.642,2.736-20.401,3.578c-6.764,0.829-13.439,1.351-19.9,1.655c-6.463,0.295-12.712,0.405-18.633,0.306     c-5.92-0.087-11.51-0.357-16.661-0.686c-5.152-0.315-9.861-0.784-14.029-1.207c-4.166-0.461-7.788-0.932-10.763-1.372     c-2.975-0.449-5.307-0.817-6.892-1.104c-1.587-0.272-2.433-0.418-2.433-0.418c-0.164-0.028-0.273-0.183-0.246-0.346     c0.028-0.158,0.174-0.266,0.332-0.247l0.006,0.001c0,0,0.851,0.104,2.445,0.298c1.592,0.208,3.935,0.462,6.915,0.764     c2.983,0.284,6.608,0.592,10.769,0.884c4.164,0.246,8.861,0.516,13.99,0.614c5.128,0.111,10.684,0.146,16.554-0.013     c5.868-0.167,12.052-0.427,18.425-0.944c6.373-0.51,12.938-1.24,19.551-2.272c6.606-1.044,13.28-2.341,19.783-4.14     c6.484-1.816,12.879-4.005,18.582-7.047c2.817-1.495,5.577-3.284,7.741-5.067c0.61-0.558,1.22-1.115,1.826-1.669l0.682-0.719     c0.248-0.272,0.521-0.52,0.748-0.809c0.946-1.121,1.852-2.267,2.603-3.511c3.18-4.879,4.747-10.575,5.586-16.085     c0.404-2.769,0.587-5.518,0.628-8.193c0.077-2.676-0.015-5.283-0.184-7.787c-0.332-5.011-0.982-9.619-1.678-13.692     c-0.693-4.076-1.461-7.617-2.121-10.533c-0.666-2.918-1.238-5.197-1.622-6.762c-0.396-1.565-0.607-2.4-0.607-2.4     c-0.041-0.161,0.057-0.325,0.219-0.366C702.105,527.245,702.251,527.318,702.311,527.448z" fill="#FFFFFF" id="XMLID_491_"/><g id="XMLID_4372_"><path d="M616.103,581.859l-35.434,25.605c0,0-28.773-110.13-19.216-133.909l22.403-3.293      C578.446,497.186,616.103,581.859,616.103,581.859z" fill="#E83A3A" id="XMLID_4392_"/><g id="XMLID_4373_"><g id="XMLID_4389_"><g id="XMLID_4390_"><path d="M580.43,606.47c1.933,8.884,4.124,17.696,5.431,26.704         c0.383,2.645,4.492,2.045,4.107-0.604c-1.307-9.008-3.498-17.82-5.43-26.703C583.974,603.268,579.863,603.852,580.43,606.47         L580.43,606.47z" fill="#E83A3A" id="XMLID_4391_"/></g></g><g id="XMLID_4386_"><g id="XMLID_4387_"><path d="M588.368,602.394c2.145,3.404,2.882,7.333,4.121,11.111         c1.237,3.775,2.677,7.473,4.245,11.122c1.056,2.452,4.86,0.787,3.802-1.675c-3.226-7.493-4.585-16.266-8.926-23.153         C590.188,597.545,586.954,600.153,588.368,602.394L588.368,602.394z" fill="#E83A3A" id="XMLID_4388_"/></g></g><g id="XMLID_4383_"><g id="XMLID_4384_"><path d="M595.153,597.304c4.437,6.958,6.617,15.319,9.977,22.87         c1.086,2.438,4.891,0.776,3.801-1.674c-3.528-7.93-5.881-16.49-10.536-23.791         C596.96,592.461,593.726,595.068,595.153,597.304L595.153,597.304z" fill="#E83A3A" id="XMLID_4385_"/></g></g><g id="XMLID_4380_"><g id="XMLID_4381_"><path d="M601.042,592.369c3.934,7.473,7.189,15.314,10.262,23.172         c0.973,2.485,4.775,0.815,3.801-1.676c-3.072-7.857-6.329-15.699-10.262-23.17         C603.608,588.346,599.794,589.997,601.042,592.369L601.042,592.369z" fill="#E83A3A" id="XMLID_4382_"/></g></g><g id="XMLID_4377_"><g id="XMLID_4378_"><path d="M608.698,589.068c-1.621-0.397-0.617-0.269-0.175,0.796         c0.275,0.659,0.709,1.286,1.046,1.924c1.104,2.074,2.137,4.188,3.172,6.294c1.758,3.579,3.424,7.213,5.3,10.731         c1.249,2.339,5.062,0.693,3.8-1.674c-2.422-4.539-4.533-9.242-6.84-13.84c-1.199-2.392-2.813-7.618-5.795-8.352         C606.614,584.31,606.133,588.438,608.698,589.068L608.698,589.068z" fill="#E83A3A" id="XMLID_4379_"/></g></g><g id="XMLID_4374_"><g id="XMLID_4375_"><path d="M614.108,585.085c1.834,0.092,4.48,5.608,5.443,6.967         c1.752,2.474,3.568,4.89,5.492,7.233c1.693,2.065,4.942-0.521,3.242-2.594c-2.644-3.221-5.057-6.6-7.438-10.017         c-1.645-2.359-2.992-5.552-6.229-5.708C611.96,580.836,611.438,584.957,614.108,585.085L614.108,585.085z" fill="#E83A3A" id="XMLID_4376_"/></g></g></g></g><path d="M605.929,414.792c20.129-13.152,30.859-0.625,37.393,15.368     c4.084,10.001,4.872,15.287,3.283,17.965c-6.943,11.708-33.19,43.041-66.227,44.752c-33.443,1.732-47.111-11.545-55.566-21.846     c-10.927-13.314,2.988-40.032,4.678-40.133c4.003-2.97,12.225,19.926,46.434,8.125     C610.131,427.22,605.929,414.792,605.929,414.792z" fill="#FF5252" id="XMLID_4371_"/><g id="XMLID_4368_"><g id="XMLID_4369_"><circle cx="532.896" cy="639.966" fill="#212121" id="XMLID_4370_" r="6.11"/></g></g><g id="XMLID_4365_"><g id="XMLID_4366_"><circle cx="536.332" cy="743.042" fill="#212121" id="XMLID_4367_" r="6.11"/></g></g><g id="XMLID_4362_"><g id="XMLID_4363_"><circle cx="539.62" cy="523.842" fill="#212121" id="XMLID_4364_" r="6.11"/></g></g><g id="XMLID_4359_"><g id="XMLID_4360_"><circle cx="529.104" cy="572.399" fill="#212121" id="XMLID_4361_" r="6.11"/></g></g><g id="XMLID_4353_"><g id="XMLID_4356_"><g id="XMLID_4357_"><path d="M674.571,924.281c-0.984,0-1.96-0.417-2.643-1.23        c-0.857-1.018-20.839-25.452-9.234-70.213c0.48-1.851,2.375-2.957,4.217-2.48c1.85,0.479,5.037,2.368,4.557,4.216        c-10.657,41.106,5.576,63.81,5.765,64.032c1.215,1.469,1.021,3.646-0.442,4.869        C676.142,924.018,675.356,924.281,674.571,924.281z" fill="#263238" id="XMLID_4358_"/></g></g><g id="XMLID_4354_"><path d="M679.536,924.041c0.332,11.43-85.529,13.936-85.862,2.506       c-0.335-11.429,18.616-21.255,42.325-21.948C659.71,903.907,679.202,912.611,679.536,924.041z" fill="#263238" id="XMLID_4355_"/></g></g></g><g id="XMLID_4346_"><g id="XMLID_4349_"><g id="XMLID_4350_"><path d="M631.688,510.959l-3.304-13.597l-13.941,5.315       c5.742-11.961,15.222-48.021,16.459-64.763c3.016-40.833-90.172-58.988-124.674-58.164c0,0-7.334-0.019-7.846-9.184       c-0.511-9.165,7.39-9.942,7.39-9.942c1.486-0.037,18.415-2.781,55.123,3.815c52.746,9.476,91.243,45.671,89.087,74.885       C648.222,463.098,632.595,509.073,631.688,510.959z" fill="#D69176" id="XMLID_4351_"/></g></g><g id="XMLID_4347_"><path d="M631.714,484.741c-4.762-1.698-9.361-1.023-10.629-0.786      c-2.331,7.876-4.699,14.678-6.643,18.723h0.001l13.94-5.315l3.304,13.597c0.394-0.819,3.554-9.928,7.151-21.916      C637.599,487.734,635.427,486.067,631.714,484.741z" fill="#263238" id="XMLID_4348_"/></g></g><g id="XMLID_4326_"><g id="XMLID_4344_"><path d="M555.726,336.257c0,0,27.239-41.19,30.898-56.089      c10.547-1.672,29.869,3.721,44.499,13.187c16.692,10.8,28.601,25.341,28.497,30.084c-3.852,16.368-35.004,53.995-35.004,53.995      L555.726,336.257z" fill="#37474F" id="XMLID_4345_"/></g><g id="XMLID_4342_"><path d="M644.062,402.592c-10.83,12.236-43.654,0.874-73.316-25.378s-44.93-57.451-34.1-69.688      c10.828-12.235,51.766-3.84,81.428,22.413C647.736,356.189,654.89,390.357,644.062,402.592z" fill="#263238" id="XMLID_4343_"/></g><path d="M567.822,451.289L567.822,451.289c-28.841-2.859-49.903-28.557-47.044-57.398     l1.887-19.031c1.775-17.911,13.965-37.561,31.975-43.387c7.379-2.387,45.041,7.078,60.443,32.654     c10.689,17.752,10.574,39.76,10.574,39.76C622.775,432.948,596.882,454.17,567.822,451.289z" fill="#E8EAF6" id="XMLID_4341_"/><g id="XMLID_4339_"><path d="M507.739,409.275c1.283,2.787,55.319-6.94,58.281-11.999      c1.429-2.439,3.063-7.572,0.372-12.212c-2.69-4.642-8.388-5.976-13.56-5.257C547.661,380.527,506.458,406.489,507.739,409.275z" fill="#FF5252" id="XMLID_4340_"/></g><g id="XMLID_4336_"><g id="XMLID_4337_"><path d="M543.06,412.438c2.945,1.179,7.164,4.02,19.356,4.257       c9.521,0.185,17.058-3.274,20.909-6.129c1.221-0.903,2.936-0.012,2.896,1.506c-0.299,11.704-3.905,22.27-18.385,23.445       C555.338,436.53,541.356,425.346,543.06,412.438z" fill="#263238" id="XMLID_4338_"/></g></g><g id="XMLID_4327_"><ellipse cx="577.785" cy="372.24" fill="#212121" id="XMLID_4333_" rx="2.589" ry="4.231" transform="matrix(-0.9903 -0.1388 0.1388 -0.9903 1098.3066 821.0765)"/><ellipse cx="549.901" cy="368.333" fill="#212121" id="XMLID_4330_" rx="2.589" ry="4.231" transform="matrix(-0.9903 -0.1387 0.1387 -0.9903 1043.3925 809.3838)"/><path d="M542.966,356.022c-0.218,0-0.401-0.08-0.543-0.176c-0.373-0.252-0.529-0.75-0.385-1.176      c0.09-0.264,0.278-0.466,0.511-0.578c3.351-2.758,8.646-3.152,15.009-1.159c0.527,0.165,0.82,0.726,0.655,1.253      c-0.165,0.527-0.726,0.82-1.253,0.655c-5.766-1.807-10.445-1.513-13.178,0.826C543.476,355.93,543.2,356.022,542.966,356.022z" fill="#263238" id="XMLID_490_"/><path d="M589.75,365.925c-0.608,0-0.891-0.579-0.991-0.786c-1.446-2.97-5.13-7.926-13.356-7.713      c-0.009,0-0.018,0-0.025,0c-0.541,0-0.986-0.431-1-0.975c-0.014-0.552,0.423-1.011,0.975-1.025      c9.388-0.221,13.548,5.435,15.205,8.837l0.015,0.029c0.12,0.156,0.196,0.35,0.207,0.562c0.023,0.474-0.294,0.916-0.754,1.034      C589.927,365.914,589.835,365.925,589.75,365.925z" fill="#263238" id="XMLID_485_"/></g></g><path d="M321.288,368.398c1.299,8.107,10.497,23.229,36.207,16.268    c25.712-6.961,25.97-24.07,23.648-36.151c-2.322-12.081,1.79-22.835,1.79-22.835s-18.818-12.499-30.634,4.483    C343.892,342.25,318.104,348.515,321.288,368.398z" fill="#26A69A" id="XMLID_4325_"/><path d="M352.459,330.283c0,0-0.315,0.471-0.965,1.327c-0.67,0.858-1.717,2.047-3.187,3.421    c-1.466,1.378-3.362,2.915-5.595,4.583c-2.227,1.676-4.794,3.478-7.492,5.542c-2.686,2.069-5.545,4.397-8.018,7.288    c-2.451,2.877-4.457,6.422-4.87,10.421c-0.222,1.976-0.081,4.063,0.36,6.056l0.186,0.805l0.239,0.707    c0.153,0.471,0.305,0.944,0.535,1.423c0.379,0.972,0.912,1.879,1.42,2.798c1.129,1.779,2.518,3.389,4.096,4.795    c0.409,0.333,0.843,0.638,1.261,0.96l0.632,0.478c0.222,0.144,0.457,0.268,0.685,0.403l1.371,0.799    c0.471,0.241,0.973,0.424,1.455,0.641c3.916,1.647,8.295,2.109,12.543,1.748c4.251-0.378,8.436-1.277,12.355-2.617    c2.129-0.57,3.804-1.43,5.633-2.1c1.719-0.901,3.465-1.699,4.961-2.759c3.061-2.02,5.535-4.478,7.26-7.151    c1.746-2.668,2.689-5.53,3.221-8.134c0.551-2.609,0.691-4.989,0.693-6.949c0.001-0.492,0.002-0.958,0.002-1.396    c-0.019-0.439-0.036-0.851-0.053-1.234c-0.032-0.768-0.063-1.424-0.112-1.954c-0.084-1.065-0.128-1.632-0.128-1.632l0.393-0.076    c0,0,0.148,0.555,0.428,1.595c0.153,0.519,0.289,1.17,0.443,1.939c0.079,0.385,0.164,0.799,0.254,1.241    c0.064,0.447,0.133,0.922,0.204,1.424c0.171,1.004,0.222,2.133,0.315,3.366c0.032,0.617-0.004,1.263-0.004,1.934    c-0.006,0.336-0.011,0.679-0.017,1.027c-0.034,0.348-0.069,0.701-0.105,1.061c-0.278,2.861-0.988,6.186-2.771,9.401    c-0.903,1.585-1.951,3.198-3.282,4.661c-0.613,0.787-1.382,1.425-2.13,2.113c-0.377,0.342-0.758,0.686-1.141,1.033    c-0.415,0.299-0.833,0.6-1.254,0.904c-0.857,0.581-1.674,1.281-2.621,1.749c-0.928,0.509-1.868,1.024-2.818,1.545    c-1.991,0.844-4.115,1.817-6.118,2.368c-4.174,1.383-8.731,2.207-13.419,2.385c-4.674,0.16-9.6-0.491-14.029-2.565    c-0.548-0.266-1.11-0.5-1.643-0.795l-1.551-0.969c-0.256-0.165-0.519-0.318-0.768-0.493l-0.712-0.572    c-0.471-0.385-0.954-0.755-1.409-1.154c-1.764-1.67-3.281-3.561-4.488-5.618c-0.548-1.059-1.107-2.104-1.505-3.22    c-0.233-0.533-0.408-1.12-0.574-1.708l-0.253-0.874l-0.158-0.81c-0.43-2.309-0.506-4.617-0.181-6.877    c0.632-4.548,3.021-8.452,5.755-11.375c2.756-2.957,5.785-5.202,8.589-7.184c2.816-1.972,5.454-3.661,7.733-5.231    c2.281-1.565,4.217-2.996,5.726-4.273c1.509-1.277,2.593-2.395,3.278-3.187c0.682-0.813,1.024-1.273,1.024-1.273L352.459,330.283z    " fill="#263238" id="XMLID_483_"/><g id="XMLID_4293_"><g id="XMLID_4319_"><g id="XMLID_4320_"><path d="M579.214,561.718c-0.402-1.971,0.872-5.958,2.842-6.361l81.435,14.43l-18.746-80.037       c-0.961-5.093,5.489-8.506,9.083-1.91l21.401,83.801l7.771,4.585l-5.418,7.252l-94.07-14.789       C583.265,568.74,579.565,563.445,579.214,561.718z" fill="#263238" id="XMLID_4321_"/></g></g><g id="XMLID_4317_"><path d="M588.257,548.107c0,6.93-12.946,1.417-20.72,1.417      c-7.771,0-28.829-5.779-28.829-12.711c0-6.93,2.916-16.789,28.829-12.387C575.199,525.728,588.257,541.176,588.257,548.107z" fill="#26A69A" id="XMLID_4318_"/></g><g id="XMLID_4303_"><g id="XMLID_4315_"><path d="M571.646,500.035c-3.829,17.768-11.72,18.26-25.279,18.26       c-14.961,0-24.397-10.854-24.397-21.341c26.086-20.895,4.411-50.241,18.605-45.253       C541.956,471.135,575.675,472.038,571.646,500.035z" fill="#FFFFFF" id="XMLID_4316_"/></g><g id="XMLID_4313_"><path d="M555.726,496.688c-3.83,17.77,22.06,16.99-9.359,21.606       c-14.961,0-29.001-14.776-29.001-25.264c34.743-12.351,3.994-42.435,23.209-41.331       C534.095,465.631,564.227,473.128,555.726,496.688z" fill="#FFFFFF" id="XMLID_4314_"/></g><g id="XMLID_4306_"><g id="XMLID_793_"><path d="M540.574,451.7c-6.479,13.932,23.652,21.429,15.151,44.988        c-3.83,17.77,22.06,16.99-9.359,21.606L540.574,451.7z" fill="#FFFFFF" id="XMLID_794_"/></g><g id="XMLID_773_"><path d="M540.854,451.808c-0.147,0.501-0.353,1.01-0.453,1.505        c-0.068,0.496-0.203,0.962-0.184,1.47c-0.093,0.996,0.146,1.974,0.386,2.917c0.336,0.93,0.724,1.838,1.279,2.682        c0.514,0.857,1.144,1.662,1.784,2.454c1.304,1.576,2.775,3.056,4.251,4.562l2.223,2.285c0.734,0.779,1.457,1.579,2.173,2.396        c0.707,0.828,1.397,1.678,2.063,2.563c0.656,0.894,1.287,1.816,1.869,2.786c0.577,0.972,1.1,1.988,1.548,3.052        c0.446,1.061,0.844,2.159,1.117,3.298c0.165,0.563,0.281,1.137,0.368,1.719c0.104,0.579,0.204,1.16,0.231,1.748        c0.133,1.175,0.097,2.349,0.069,3.527c-0.106,1.164-0.217,2.335-0.451,3.472c-0.166,1.164-0.528,2.25-0.803,3.382l0.102-0.355        c-0.041,0.638-0.171,1.278-0.14,1.894c-0.031,0.625,0.042,1.221,0.076,1.816c0.094,0.583,0.192,1.156,0.343,1.71        c0.142,0.558,0.345,1.094,0.571,1.627c0.214,0.538,0.491,1.061,0.808,1.58c0.295,0.529,0.65,1.055,1.031,1.583        c0.405,0.528,0.81,1.065,1.284,1.651c0.469,0.596,0.969,1.153,1.573,2.11c0.144,0.215,0.327,0.583,0.468,0.874        c0.077,0.165,0.164,0.44,0.228,0.661c0.063,0.243,0.131,0.43,0.144,0.8c0.017,0.331,0.004,0.669-0.042,0.989        c-0.081,0.327-0.201,0.66-0.352,0.968c-0.156,0.344-0.313,0.511-0.482,0.711c-0.169,0.194-0.354,0.384-0.538,0.545        c-0.29,0.205-0.592,0.398-0.896,0.573l-0.749,0.317c-0.497,0.199-0.902,0.271-1.353,0.403l-1.235,0.244l-1.195,0.154        c-0.789,0.087-1.565,0.158-2.337,0.215c-0.771,0.052-1.546,0.076-2.312,0.094c-0.767,0.023-1.534,0.04-2.302,0.018        c-1.533-0.008-3.067-0.077-4.609-0.216c-0.17-0.015-0.295-0.165-0.28-0.335c0.011-0.119,0.09-0.216,0.192-0.259        c1.434-0.586,2.875-1.095,4.312-1.585c0.72-0.25,1.434-0.494,2.15-0.722l2.129-0.713c0.704-0.227,1.4-0.465,2.078-0.711        c0.681-0.252,1.324-0.508,1.929-0.766c0.25-0.138,0.572-0.276,0.753-0.403l0.266-0.176c0.005-0.039,0.012-0.062,0.03-0.071        c-0.056,0.024-0.12,0.07-0.165,0.122c-0.047,0.057-0.063,0.094-0.174,0.248c-0.083,0.133-0.135,0.29-0.149,0.442        c-0.049,0.132-0.066,0.281-0.053,0.425c0.035,0.178,0.016,0.191,0.024,0.255c-0.002,0.045,0.046,0.132,0.035,0.132        c-0.053-0.031-0.027-0.008-0.11-0.094c-0.254-0.281-0.801-0.814-1.327-1.342c-0.538-0.528-1.119-1.128-1.663-1.766        c-0.547-0.655-1.092-1.338-1.581-2.093c-0.477-0.758-0.917-1.564-1.275-2.416c-0.377-0.843-0.635-1.749-0.837-2.652        c-0.219-0.907-0.281-1.831-0.337-2.745c-0.001-0.91,0.021-1.817,0.164-2.691c0.081-0.892,0.33-1.719,0.505-2.569l0.035-0.17        l0.066-0.185c0.322-0.89,0.744-1.774,0.967-2.688c0.31-0.906,0.451-1.83,0.628-2.756c0.098-0.927,0.199-1.861,0.162-2.792        c0.019-0.469-0.03-0.932-0.078-1.397c-0.031-0.467-0.088-0.932-0.189-1.392c-0.146-0.928-0.404-1.844-0.706-2.751        c-0.301-0.91-0.69-1.798-1.104-2.686c-0.426-0.884-0.909-1.753-1.426-2.613c-0.528-0.855-1.094-1.698-1.684-2.533        c-1.195-1.664-2.503-3.288-3.813-4.947c-1.311-1.658-2.656-3.327-3.86-5.145c-0.592-0.917-1.173-1.847-1.643-2.856        c-0.505-0.984-0.848-2.069-1.107-3.159c-0.177-1.113-0.273-2.257-0.043-3.359c0.05-0.553,0.266-1.095,0.418-1.628        c0.179-0.519,0.433-0.97,0.646-1.458c0.065-0.152,0.242-0.222,0.395-0.155c0.141,0.061,0.211,0.217,0.168,0.36        L540.854,451.808z" fill="#E8EAF6" id="XMLID_792_"/></g></g><g id="XMLID_4304_"><path d="M542.612,615.376L526.56,509.428c0,0,6.229,2.976,20.938,3.645       s20.938-3.645,20.938-3.645l-19.316,106.05C548.417,619.107,543.196,619.024,542.612,615.376z" fill="#E5B735" id="XMLID_4305_"/></g></g><g id="XMLID_4301_"><path d="M583.886,588c-10.738,14.485-48.359,16.473-64.23,9.275      c-9.367-4.249-5.482-22.159-6.063-34.929c-0.402-8.87-4.619-20.737-0.154-26.628c8.148-10.745,17.2-2.495,27.998-2.383      c10.801,0.115,22.734-4.289,31.001-1.524C595.573,539.542,597.121,570.147,583.886,588z" fill="#26A69A" id="XMLID_4302_"/></g><g id="XMLID_4294_"><g id="XMLID_764_"><path d="M583.886,588c-10.738,14.485-48.359,16.473-64.23,9.275       c-9.367-4.249-5.482-22.159-6.063-34.929c-0.402-8.87-4.619-20.737-0.154-26.628L583.886,588z" fill="#26A69A" id="XMLID_770_"/></g><g id="XMLID_760_"><path d="M584.04,588.126c0,0-0.287,0.433-0.826,1.246c-0.271,0.406-0.69,0.868-1.155,1.436       c-0.494,0.529-1.06,1.144-1.764,1.757c-2.754,2.531-7.445,5.304-13.502,7.301c-0.754,0.259-1.531,0.497-2.327,0.721       c-0.794,0.241-1.609,0.453-2.441,0.661c-1.666,0.408-3.403,0.753-5.196,1.067c-3.585,0.637-7.414,0.984-11.379,1.067       c-3.967,0.066-8.072-0.174-12.207-0.785c-4.13-0.611-8.318-1.499-12.358-3.09c-0.507-0.191-1.003-0.43-1.503-0.643       l-0.451-0.203l-0.342-0.186c-0.238-0.138-0.424-0.21-0.722-0.421c-1.149-0.723-1.954-1.557-2.677-2.533       c-1.416-1.938-2.096-4.133-2.52-6.236c-0.791-4.242-0.66-8.333-0.514-12.235c0.175-3.904,0.445-7.637,0.552-11.16       c0.024-0.88,0.039-1.747,0.033-2.599c0.003-0.85-0.046-1.665-0.083-2.518c-0.122-1.621-0.288-3.217-0.494-4.752       c-0.397-3.067-0.82-5.898-1.024-8.436c-0.216-2.535-0.212-4.781,0.047-6.613c0.244-1.841,0.823-3.209,1.259-4.098       c0.524-0.848,0.834-1.279,0.834-1.279l0.318,0.241c0,0-0.271,0.43-0.724,1.254c-0.366,0.869-0.845,2.184-0.984,3.962       c-0.146,1.771-0.047,3.944,0.276,6.423c0.315,2.481,0.863,5.262,1.406,8.332c0.278,1.532,0.524,3.144,0.73,4.854       c0.074,0.817,0.167,1.699,0.205,2.577c0.047,0.876,0.072,1.763,0.09,2.661c0.069,3.593-0.102,7.352-0.123,11.207       c-0.014,3.84,0.034,7.839,0.887,11.6c0.438,1.859,1.111,3.654,2.199,5.017c0.263,0.35,0.57,0.646,0.875,0.942l0.492,0.398       c0.163,0.117,0.319,0.202,0.474,0.311c0.116,0.101,0.416,0.225,0.629,0.338l0.347,0.173c-0.141-0.07-0.015-0.01-0.035-0.021       l0.043,0.017l0.085,0.034l0.171,0.067c0.459,0.174,0.902,0.372,1.371,0.528c1.854,0.664,3.804,1.134,5.759,1.524       c1.956,0.397,3.942,0.656,5.919,0.84c3.957,0.366,7.885,0.437,11.676,0.34c3.793-0.071,7.456-0.334,10.91-0.73       c1.726-0.206,3.402-0.444,5.007-0.745c0.806-0.135,1.598-0.274,2.366-0.443c0.774-0.152,1.529-0.319,2.262-0.507       c2.939-0.716,5.59-1.547,7.858-2.48c2.267-0.929,4.186-1.907,5.653-2.883c0.74-0.478,1.377-0.953,1.924-1.364       c0.511-0.446,0.975-0.795,1.325-1.135c0.691-0.688,1.061-1.055,1.061-1.055L584.04,588.126z" fill="#263238" id="XMLID_762_"/></g></g></g></g></g></svg>