<svg width="512" height="512" viewBox="0 0 512 512" fill="none" xmlns="http://www.w3.org/2000/svg">
<path d="M73.0506 54.9484C68.052 49.9495 59.9475 49.9495 54.9489 54.9484C49.95 59.9471 49.95 68.0515 54.9489 73.0502L144.518 162.62C101.642 191.789 69.7173 237.409 58.3706 291.786C56.9267 298.705 61.366 305.487 68.2862 306.93C75.2064 308.374 81.9868 303.935 83.4309 297.013C93.7685 247.474 123.484 206.409 162.998 181.099L203.493 221.594C180.866 237.857 166.13 264.406 166.13 294.399C166.13 343.884 206.245 383.999 255.73 383.999C285.721 383.999 312.271 369.264 328.535 346.636L438.948 457.051C443.947 462.049 452.052 462.049 457.052 457.051C462.049 452.052 462.049 443.947 457.052 438.947L73.0506 54.9484Z" fill="white"/>
<path d="M259.169 204.865L345.265 290.962C343.501 244.212 305.92 206.629 259.169 204.865Z" fill="white"/>
<path d="M192.794 138.491L213.353 159.049C227.108 155.482 241.41 153.6 255.999 153.6C338.063 153.6 411.069 213.168 428.567 297.014C430.011 303.936 436.792 308.375 443.712 306.931C450.631 305.485 455.071 298.706 453.627 291.786C433.728 196.432 350.551 128 255.999 128C234.106 128 212.823 131.669 192.794 138.491Z" fill="white"/>
</svg>
