<svg width="512" height="512" viewBox="0 0 512 512" fill="none" xmlns="http://www.w3.org/2000/svg">
<path d="M321.826 367.814C319.86 367.814 318.878 367.814 316.913 366.622C313.965 364.237 312 360.661 312 355.892V260.518C312 255.749 313.965 252.173 316.913 249.788C319.86 247.404 323.791 247.404 326.738 249.788L395.518 297.475C398.465 299.86 400.431 303.436 400.431 308.205C400.431 312.974 398.465 316.55 395.518 318.935L326.738 366.622C324.773 367.814 323.791 367.814 321.826 367.814ZM331.651 280.785V335.625L370.954 308.205L331.651 280.785Z" fill="black"/>
<path d="M331.651 280.785V335.625L370.954 308.205L331.651 280.785Z" fill="black"/>
<path d="M455.167 460H255.833C228.425 460 206 437.2 206 409.333V206.667C206 178.8 228.425 156 255.833 156H455.167C482.575 156 505 178.8 505 206.667V409.333C505 437.2 482.575 460 455.167 460ZM255.833 181.333C242.129 181.333 230.917 192.733 230.917 206.667V409.333C230.917 423.267 242.129 434.667 255.833 434.667H455.167C468.871 434.667 480.083 423.267 480.083 409.333V206.667C480.083 192.733 468.871 181.333 455.167 181.333H255.833Z" fill="black"/>
<path d="M105.732 171.66C120.832 171.66 133.073 157.445 133.073 139.908C133.073 122.372 120.832 108.156 105.732 108.156C90.6325 108.156 78.3916 122.372 78.3916 139.908C78.3916 157.445 90.6325 171.66 105.732 171.66Z" stroke="black" stroke-width="16" stroke-linecap="round" stroke-linejoin="round"/>
<path d="M86.0537 330.418C138.257 198.715 184.421 141.487 231.374 158.683" stroke="black" stroke-width="24" stroke-linecap="round" stroke-linejoin="round"/>
<path d="M198.188 330.418H78.3916C48.1918 330.418 23.71 301.986 23.71 266.914V108.154C23.71 73.082 48.1918 44.6504 78.3916 44.6504H242.437C272.636 44.6504 297.118 73.082 297.118 108.154V154.947" stroke="black" stroke-width="23" stroke-linecap="round" stroke-linejoin="round"/>
</svg>
