<svg width="100" height="100" viewBox="0 0 100 100" fill="none" xmlns="http://www.w3.org/2000/svg">
<path d="M87.5 81.25V18.75C87.5 15.2979 84.7021 12.5 81.25 12.5H18.75C15.2979 12.5 12.5 15.2979 12.5 18.75V81.25C12.5 84.7021 15.2979 87.5 18.75 87.5H81.25C84.7021 87.5 87.5 84.7021 87.5 81.25Z" fill="#1DAB61"/>
<path d="M18.75 87.4993H81.25C84.7021 87.4993 50 54.166 50 54.166C50 54.166 15.2979 87.4993 18.75 87.4993Z" fill="#009DE2"/>
<path d="M87.5 81.2493V18.7493C87.5 15.2972 54.1666 49.9993 54.1666 49.9993C54.1666 49.9993 87.5 84.7014 87.5 81.2493Z" fill="#CBCCC9"/>
<path d="M81.25 87.4993C84.702 87.4993 87.5 84.7014 87.5 81.2493V80.7389L54.677 47.916L47.9166 54.6764L80.7395 87.4993H81.25Z" fill="#EFEFEF"/>
<path d="M87.5 18.75C87.5 15.2979 84.7021 12.5 81.25 12.5H80.7396L12.5 80.7396V81.25C12.5 84.7021 15.2979 87.5 18.75 87.5H19.2604L87.5 19.2604V18.75Z" fill="white"/>
<path d="M75 4.16602C63.4937 4.16602 54.1666 13.4931 54.1666 24.9993C54.1666 39.1931 70.1375 44.3639 73.6104 66.3556C73.8333 67.7723 73.85 68.7493 75 68.7493C76.15 68.7493 76.1666 67.7723 76.3895 66.3556C79.8625 44.3639 95.8333 39.1931 95.8333 24.9993C95.8333 13.4931 86.5062 4.16602 75 4.16602Z" fill="#D73F35"/>
<path d="M75 17.709C74.0425 17.709 73.0943 17.8976 72.2096 18.264C71.325 18.6305 70.5211 19.1676 69.8441 19.8447C69.167 20.5218 68.6299 21.3256 68.2634 22.2103C67.897 23.0949 67.7084 24.0431 67.7084 25.0007C67.7084 25.9582 67.897 26.9064 68.2634 27.7911C68.6299 28.6757 69.167 29.4795 69.8441 30.1566C70.5211 30.8337 71.325 31.3708 72.2096 31.7373C73.0943 32.1037 74.0425 32.2923 75 32.2923C75.9576 32.2923 76.9058 32.1037 77.7904 31.7373C78.6751 31.3708 79.4789 30.8337 80.156 30.1566C80.8331 29.4795 81.3702 28.6757 81.7367 27.7911C82.1031 26.9064 82.2917 25.9582 82.2917 25.0007C82.2917 24.0431 82.1031 23.0949 81.7367 22.2103C81.3702 21.3256 80.8331 20.5218 80.156 19.8447C79.4789 19.1676 78.6751 18.6305 77.7904 18.264C76.9058 17.8976 75.9576 17.709 75 17.709Z" fill="#752622"/>
</svg>
