<svg width="512" height="512" viewBox="0 0 512 512" fill="none" xmlns="http://www.w3.org/2000/svg">
<path d="M386.39 172.484H381.719V133.719C381.719 64.3984 325.32 8 256 8C186.68 8 130.281 64.3984 130.281 133.719V172.484H125.609C95.6172 172.484 71.2188 196.883 71.2188 226.867V449.609C71.2188 479.602 95.6172 504 125.609 504H386.391C416.383 504 440.781 479.602 440.781 449.609V226.867C440.781 196.883 416.383 172.484 386.39 172.484ZM178.281 133.719C178.281 90.8672 213.148 56 256 56C298.851 56 333.719 90.8672 333.719 133.719V172.484H178.281V133.719ZM392.781 449.609C392.781 453.133 389.914 456 386.391 456H125.609C122.086 456 119.219 453.133 119.219 449.609V226.867C119.219 223.344 122.086 220.484 125.609 220.484H386.391C389.914 220.484 392.781 223.344 392.781 226.867V449.609Z" fill="black"/>
</svg>
