<svg width="46" height="42" viewBox="0 0 46 42" fill="none" xmlns="http://www.w3.org/2000/svg">
<path d="M15.25 33.5L15.9942 33.0038C16.487 32.6753 17.0661 32.5 17.6583 32.5H21.75H23.75H25.75H29.75H35C36.6569 32.5 38 31.1569 38 29.5V16" stroke="#C1C1C1" stroke-width="2"/>
<path d="M6.45 38.5H6.45117" stroke="#C1C1C1" stroke-width="2"/>
<path d="M5.75 32.5H8.25H4C2.34315 32.5 1 31.1569 1 29.5V8.5C1 6.84315 2.34315 5.5 4 5.5H30.25" stroke="#C1C1C1" stroke-width="2"/>
<path d="M36.75 1C40.8921 1 44.25 4.35786 44.25 8.5C44.25 12.6421 40.8921 16 36.75 16C32.6079 16 29.25 12.6421 29.25 8.5C29.25 4.35786 32.6079 1 36.75 1Z" stroke="#C1C1C1" stroke-width="2"/>
<rect x="11.25" y="14" width="17" height="3" fill="#C1C1C1"/>
<rect x="11.25" y="21" width="17" height="3" fill="#C1C1C1"/>
<path d="M38.0036 4.72727V12H36.4659V6.18679H36.4233L34.7578 7.23082V5.86719L36.5582 4.72727H38.0036Z" fill="#C1C1C1"/>
<path d="M8.24878 32.0005C7.58211 32.0005 6.91544 32.0005 6.24878 32.0005C6.24878 32.3222 6.24878 32.6439 6.24878 32.9655C6.24879 35.1436 6.2488 37.3217 6.24881 39.4997L6.24882 41.4785L7.84195 40.3048C10.3053 38.49 12.7687 36.6752 15.2321 34.8604C15.6768 34.5327 16.1215 34.2051 16.5662 33.8775C16.8252 33.6867 17.0842 33.4959 17.3431 33.3051C16.9477 32.7684 16.5523 32.2316 16.1569 31.6949C15.8979 31.8857 15.6389 32.0765 15.3799 32.2673C14.9352 32.5949 14.4905 32.9225 14.0458 33.2502C11.5824 35.065 9.11905 36.8798 6.65568 38.6946L8.24881 39.4997C8.2488 37.3217 8.24879 35.1436 8.24878 32.9655C8.24878 32.6439 8.24878 32.3222 8.24878 32.0005Z" fill="#C1C1C1"/>
</svg>
