<svg xmlns="http://www.w3.org/2000/svg" viewBox="0 0 24 24" width="24" height="24">
  <path d="M4 18C4 17.45 4.19583 16.9792 4.5875 16.5875C4.97917 16.1958 5.45 16 6 16H9C9.55 16 10.0208 16.1958 10.4125 16.5875C10.8042 16.9792 11 17.45 11 18C11 18.55 10.8042 19.0208 10.4125 19.4125C10.0208 19.8042 9.55 20 9 20H6C5.45 20 4.97917 19.8042 4.5875 19.4125C4.19583 19.0208 4 18.55 4 18ZM4 12C4 11.45 4.19583 10.9792 4.5875 10.5875C4.97917 10.1958 5.45 10 6 10H18C18.55 10 19.0208 10.1958 19.4125 10.5875C19.8042 10.9792 20 11.45 20 12C20 12.55 19.8042 13.0208 19.4125 13.4125C19.0208 13.8042 18.55 14 18 14H6C5.45 14 4.97917 13.8042 4.5875 13.4125C4.19583 13.0208 4 12.55 4 12ZM4 6C4 5.45 4.19583 4.97917 4.5875 4.5875C4.97917 4.19583 5.45 4 6 4L13 4C13.55 4 14.0208 4.19583 14.4125 4.5875C14.8042 4.97917 15 5.45 15 6C15 6.55 14.8042 7.02083 14.4125 7.4125C14.0208 7.80417 13.55 8 13 8H6C5.45 8 4.97917 7.80417 4.5875 7.4125C4.19583 7.02083 4 6.55 4 6Z" fill="black"/>
</svg>
