<?xml version="1.0" standalone="no"?>
<!DOCTYPE svg PUBLIC "-//W3C//DTD SVG 20010904//EN"
 "http://www.w3.org/TR/2001/REC-SVG-20010904/DTD/svg10.dtd">
<svg version="1.0" xmlns="http://www.w3.org/2000/svg"
 width="72.000000pt" height="72.000000pt" viewBox="0 0 72.000000 72.000000"
 preserveAspectRatio="xMidYMid meet">

<g transform="translate(0.000000,72.000000) scale(0.100000,-0.100000)"
fill="#000000" stroke="none">
<path d="M368 700 c-50 -9 -102 -47 -128 -92 -13 -24 -31 -40 -48 -44 -15 -4
-35 -14 -45 -23 -11 -9 -38 -23 -60 -31 -99 -37 -116 -171 -28 -223 32 -19 71
-23 71 -7 0 6 -9 10 -19 10 -28 0 -79 46 -86 79 -10 48 34 121 75 121 9 0 31
11 50 25 19 14 46 25 61 25 20 0 28 6 33 24 9 36 55 87 93 102 148 62 296 -94
223 -235 -24 -48 -60 -78 -111 -91 -40 -11 -53 -30 -21 -30 32 0 105 44 135
81 16 21 31 54 34 78 7 48 27 54 61 19 64 -69 38 -177 -48 -194 -17 -4 -30
-13 -30 -21 0 -16 24 -11 72 13 48 25 78 93 64 148 -8 34 -61 93 -89 100 -14
3 -27 18 -35 40 -33 92 -124 143 -224 126z"/>
<path d="M191 261 c-14 -24 -14 -31 -1 -31 14 0 32 38 21 45 -6 3 -15 -3 -20
-14z"/>
<path d="M271 261 c-14 -24 -14 -31 -1 -31 14 0 32 38 21 45 -6 3 -15 -3 -20
-14z"/>
<path d="M351 261 c-14 -24 -14 -31 -1 -31 14 0 32 38 21 45 -6 3 -15 -3 -20
-14z"/>
<path d="M431 262 c-14 -27 -14 -32 3 -32 18 0 30 30 17 43 -6 6 -13 1 -20
-11z"/>
<path d="M512 255 c-9 -20 -9 -25 2 -25 13 0 26 20 26 41 0 18 -17 8 -28 -16z"/>
<path d="M152 185 c-9 -20 -9 -25 2 -25 13 0 26 20 26 41 0 18 -17 8 -28 -16z"/>
<path d="M232 185 c-9 -20 -9 -25 2 -25 13 0 26 20 26 41 0 18 -17 8 -28 -16z"/>
<path d="M315 189 c-4 -11 -4 -23 0 -27 7 -7 25 17 25 36 0 20 -18 14 -25 -9z"/>
<path d="M395 189 c-4 -11 -4 -24 0 -27 9 -9 36 28 29 39 -9 15 -22 10 -29
-12z"/>
<path d="M481 191 c-14 -24 -14 -31 -1 -31 14 0 32 38 21 45 -6 3 -15 -3 -20
-14z"/>
<path d="M121 121 c-14 -24 -14 -31 -1 -31 14 0 32 38 21 45 -6 3 -15 -3 -20
-14z"/>
<path d="M201 121 c-14 -24 -14 -31 -1 -31 14 0 32 38 21 45 -6 3 -15 -3 -20
-14z"/>
<path d="M281 121 c-14 -24 -14 -31 -1 -31 14 0 32 38 21 45 -6 3 -15 -3 -20
-14z"/>
<path d="M360 121 c-13 -26 -13 -31 4 -31 13 0 26 20 26 41 0 16 -19 10 -30
-10z"/>
<path d="M442 115 c-9 -20 -9 -25 2 -25 13 0 26 20 26 41 0 18 -17 8 -28 -16z"/>
<path d="M82 45 c-9 -20 -9 -25 2 -25 13 0 26 20 26 41 0 18 -17 8 -28 -16z"/>
<path d="M165 49 c-4 -11 -4 -23 0 -27 7 -7 25 17 25 36 0 20 -18 14 -25 -9z"/>
<path d="M245 49 c-4 -11 -4 -23 0 -27 7 -7 25 17 25 36 0 20 -18 14 -25 -9z"/>
<path d="M325 49 c-4 -11 -4 -24 0 -27 9 -9 36 28 29 39 -9 15 -22 10 -29 -12z"/>
<path d="M411 51 c-14 -24 -14 -31 -1 -31 14 0 32 38 21 45 -6 3 -15 -3 -20
-14z"/>
</g>
</svg>
