<svg width="32" height="32" viewBox="0 0 32 32" fill="none" xmlns="http://www.w3.org/2000/svg">
<g clip-path="url(#clip0_2838_9397)">
<path fill-rule="evenodd" clip-rule="evenodd" d="M25.6 12.8C25.6096 13.2261 25.534 13.6496 25.3776 14.0461C25.2212 14.4426 24.9872 14.8045 24.6893 15.1094C24.3913 15.4142 24.0355 15.6565 23.6426 15.8219C23.2498 15.9873 22.8279 16.0725 22.4016 16.0727C21.9754 16.0728 21.5534 15.9871 21.1604 15.8219C20.7675 15.6567 20.4116 15.4148 20.1135 15.1102C19.8154 14.8055 19.5812 14.4441 19.4246 14.0477C19.268 13.6512 19.1922 13.2277 19.2016 12.8016C19.2201 11.9655 19.5652 11.17 20.1629 10.5852C20.7607 10.0003 21.5637 9.67287 22.4 9.67266C23.2363 9.67245 24.0395 9.99904 24.6375 10.5836C25.2356 11.1682 25.5811 11.9639 25.6 12.8ZM9.6 16C9.17386 16.0096 8.75009 15.9337 8.35356 15.7773C7.95704 15.621 7.59575 15.387 7.29092 15.0891C6.98609 14.7911 6.74383 14.4358 6.57842 14.043C6.413 13.6501 6.32774 13.2278 6.32764 12.8016C6.32753 12.3753 6.41261 11.9531 6.57783 11.5602C6.74305 11.1672 6.98511 10.8114 7.2898 10.5133C7.59448 10.2152 7.95561 9.98081 8.35205 9.82422C8.7485 9.66763 9.17224 9.59214 9.59839 9.60156C10.4345 9.62005 11.2301 9.9655 11.815 10.5633C12.3998 11.1611 12.7274 11.9637 12.7276 12.8C12.7278 13.6363 12.4007 14.4394 11.8161 15.0375C11.2316 15.6356 10.4361 15.9811 9.6 16ZM23.8464 19.925C22.3072 28.6898 9.69281 28.5234 8.15361 19.7586C7.98561 18.8018 8.77119 18.2641 9.74399 18.2641H22.256C23.2288 18.2641 24.0144 18.9682 23.8464 19.925ZM16 28.8C8.9424 28.8 3.2 23.0576 3.2 16C3.2 8.9424 8.9424 3.2 16 3.2C23.0576 3.2 28.8 8.9424 28.8 16C28.8 23.0576 23.0576 28.8 16 28.8ZM16 0C7.1632 0 0 7.1632 0 16C0 24.8368 7.1632 32 16 32C24.8368 32 32 24.8368 32 16C32 7.1632 24.8368 0 16 0Z" fill="white"/>
</g>
<defs>
<clipPath id="clip0_2838_9397">
<rect width="32" height="32" fill="white"/>
</clipPath>
</defs>
</svg>
