<svg width="32" height="32" viewBox="0 0 32 32" fill="none" xmlns="http://www.w3.org/2000/svg">
<path d="M17.3336 11.9996H7.21358L12.9469 6.2796C13.0712 6.15528 13.1698 6.00769 13.2371 5.84526C13.3044 5.68283 13.339 5.50874 13.339 5.33293C13.339 5.15712 13.3044 4.98303 13.2371 4.8206C13.1698 4.65817 13.0712 4.51058 12.9469 4.38626C12.8226 4.26194 12.675 4.16333 12.5126 4.09605C12.3501 4.02877 12.1761 3.99414 12.0002 3.99414C11.8244 3.99414 11.6503 4.02877 11.4879 4.09605C11.3255 4.16333 11.1779 4.26194 11.0536 4.38626L3.05358 12.3863C2.92861 12.5102 2.82941 12.6577 2.76172 12.8202C2.69403 12.9826 2.65918 13.1569 2.65918 13.3329C2.65918 13.5089 2.69403 13.6832 2.76172 13.8457C2.82941 14.0082 2.92861 14.1556 3.05358 14.2796L11.0536 22.2796C11.1775 22.4046 11.325 22.5038 11.4875 22.5715C11.65 22.6391 11.8242 22.674 12.0002 22.674C12.1763 22.674 12.3505 22.6391 12.513 22.5715C12.6755 22.5038 12.823 22.4046 12.9469 22.2796C13.0719 22.1556 13.1711 22.0082 13.2388 21.8457C13.3065 21.6832 13.3413 21.5089 13.3413 21.3329C13.3413 21.1569 13.3065 20.9826 13.2388 20.8202C13.1711 20.6577 13.0719 20.5102 12.9469 20.3863L7.21358 14.6663H17.3336C19.8089 14.6663 22.1829 15.6496 23.9332 17.3999C25.6836 19.1503 26.6669 21.5242 26.6669 23.9996V26.6663C26.6669 27.0199 26.8074 27.359 27.0574 27.6091C27.3075 27.8591 27.6466 27.9996 28.0002 27.9996C28.3539 27.9996 28.693 27.8591 28.9431 27.6091C29.1931 27.359 29.3336 27.0199 29.3336 26.6663V23.9996C29.3336 20.817 28.0693 17.7648 25.8189 15.5143C23.5684 13.2639 20.5162 11.9996 17.3336 11.9996Z" fill="white"/>
</svg>
