<svg width="512" height="512" viewBox="0 0 512 512" fill="none" xmlns="http://www.w3.org/2000/svg">
<g clip-path="url(#clip0_2816_9373)">
<path d="M256 0C114.624 0 0 114.624 0 256C0 397.376 114.624 512 256 512C397.376 512 512 397.376 512 256C512 114.624 397.376 0 256 0ZM256 480C132.48 480 32 379.52 32 256C32 132.48 132.48 32 256 32C379.52 32 480 132.48 480 256C480 379.52 379.52 480 256 480ZM256 96C247.513 96 239.374 99.3714 233.373 105.373C227.371 111.374 224 119.513 224 128V288C224 296.487 227.371 304.626 233.373 310.627C239.374 316.629 247.513 320 256 320C264.487 320 272.626 316.629 278.627 310.627C284.629 304.626 288 296.487 288 288V128C288 119.513 284.629 111.374 278.627 105.373C272.626 99.3714 264.487 96 256 96ZM224 383.488C224 391.975 227.371 400.114 233.373 406.115C239.374 412.117 247.513 415.488 256 415.488C264.487 415.488 272.626 412.117 278.627 406.115C284.629 400.114 288 391.975 288 383.488C288 379.286 287.172 375.125 285.564 371.242C283.956 367.36 281.599 363.832 278.627 360.861C275.656 357.889 272.128 355.532 268.246 353.924C264.363 352.316 260.202 351.488 256 351.488C251.798 351.488 247.637 352.316 243.754 353.924C239.872 355.532 236.344 357.889 233.373 360.861C230.401 363.832 228.044 367.36 226.436 371.242C224.828 375.125 224 379.286 224 383.488Z" fill="black"/>
</g>
<defs>
<clipPath id="clip0_2816_9373">
<rect width="512" height="512" fill="white"/>
</clipPath>
</defs>
</svg>
