<svg width="512" height="512" viewBox="0 0 512 512" fill="none" xmlns="http://www.w3.org/2000/svg">
<path d="M338.345 286.354C340.775 287.766 343.435 288.426 346.06 288.4C351.252 288.35 356.282 285.618 359.061 280.772C369.732 262.17 375.264 240.949 375.056 219.394C374.414 152.903 320.122 99.3324 254.025 99.9709C232.533 100.179 211.541 106.153 193.31 117.259C186.144 121.621 183.854 131.001 188.191 138.209C192.528 145.418 201.852 147.723 209.017 143.361C222.6 135.092 238.263 130.641 254.32 130.486C303.693 130.009 344.249 170.026 344.729 219.694C344.885 235.796 340.756 251.65 332.793 265.521C328.611 272.819 331.096 282.146 338.345 286.361L338.345 286.354Z" fill="black"/>
<path d="M135.871 70.5016C170.792 47.6258 211.431 35.3219 253.397 34.9165C374.547 33.7462 474.073 131.942 475.25 253.822C475.658 296.023 464.193 337.099 442.088 372.613C437.646 379.755 439.795 389.164 446.895 393.641C449.442 395.247 452.275 395.991 455.072 395.964C460.07 395.916 464.944 393.38 467.79 388.807C492.974 348.342 506.034 301.567 505.57 253.529C504.23 114.834 390.976 3.08414 253.102 4.41601C205.357 4.87724 159.097 18.8876 119.323 44.9414C112.303 49.54 110.322 58.9886 114.886 66.0437C119.451 73.0988 128.851 75.1002 135.871 70.5088L135.871 70.5016ZM84.6585 439.627C131.769 484.01 193.307 508.104 257.933 507.48C322.56 506.856 377.949 483.847 423.099 442.663L458.514 477.608L479.748 455.831L52.5286 34.2741L31.2952 56.0581L66.6813 90.9741C26.4941 137.399 4.82978 196.248 5.42951 258.331C6.10067 327.809 34.2411 392.202 84.6656 439.627L84.6585 439.627ZM396.735 416.649C397.943 418.47 399.116 420.342 400.268 422.264C360.793 457.117 310.584 476.461 257.639 476.972C204.694 477.484 154.134 459.113 113.987 425.03C143.253 373.559 196.806 341.702 256.326 341.127C288.281 340.818 319.284 349.645 346.078 366.658L396.742 416.649L396.735 416.649ZM169.936 192.864L284.321 305.728C275.271 308.853 265.727 310.525 256.032 310.619C206.658 311.096 166.102 271.079 165.622 221.411C165.528 211.658 167.005 202.019 169.936 192.864ZM88.3678 112.372L146.447 169.68C138.958 185.884 135.128 203.647 135.302 221.704C135.711 264.028 157.865 301.121 190.967 322.322C150.18 337.116 115.159 365.281 91.6291 403.205C55.9938 363.285 36.282 312.439 35.7564 258.031C35.2308 203.624 53.8256 152.949 88.375 112.372L88.3678 112.372Z" fill="black"/>
</svg>
