<?xml version="1.0" standalone="no"?>
<!DOCTYPE svg PUBLIC "-//W3C//DTD SVG 20010904//EN"
 "http://www.w3.org/TR/2001/REC-SVG-20010904/DTD/svg10.dtd">
<svg version="1.0" xmlns="http://www.w3.org/2000/svg"
 width="72.000000pt" height="72.000000pt" viewBox="0 0 72.000000 72.000000"
 preserveAspectRatio="xMidYMid meet">

<g transform="translate(0.000000,72.000000) scale(0.100000,-0.100000)"
fill="#000000" stroke="none">
<path d="M347 714 c-4 -4 -7 -27 -7 -51 0 -47 -12 -54 -46 -28 -30 22 -56 19
-52 -7 2 -14 20 -32 48 -48 64 -37 66 -69 9 -106 -40 -25 -44 -26 -68 -11 -23
14 -26 23 -29 76 -3 53 -6 61 -22 61 -17 0 -20 -7 -20 -39 0 -49 -8 -55 -46
-30 -38 25 -64 25 -64 -1 0 -12 14 -28 39 -42 l39 -22 -34 -24 c-34 -23 -43
-45 -24 -57 5 -3 32 6 59 21 43 24 53 26 75 16 23 -10 26 -17 26 -62 0 -45 -3
-52 -26 -62 -22 -10 -32 -8 -75 16 -27 15 -54 24 -59 21 -19 -12 -10 -34 24
-57 l34 -24 -39 -22 c-25 -14 -39 -30 -39 -42 0 -26 26 -26 64 -1 38 25 46 19
46 -30 0 -32 3 -39 20 -39 16 0 19 8 22 61 3 53 6 62 29 76 24 15 28 14 68
-11 57 -37 55 -69 -9 -106 -28 -16 -46 -34 -48 -48 -4 -26 22 -29 52 -7 34 26
45 18 48 -32 2 -35 7 -48 18 -48 11 0 16 13 18 47 3 51 14 59 48 33 30 -22 56
-19 52 7 -2 14 -20 32 -48 48 -64 37 -66 69 -9 106 40 25 44 26 68 11 23 -14
26 -23 29 -76 3 -53 6 -61 22 -61 17 0 20 7 20 39 0 49 8 55 46 30 38 -25 64
-25 64 1 0 12 -14 28 -39 42 l-39 22 34 24 c34 23 43 45 24 57 -5 3 -32 -6
-59 -21 -43 -24 -53 -26 -75 -16 -23 10 -26 17 -26 62 0 45 3 52 26 62 22 10
32 8 75 -16 27 -15 54 -24 59 -21 19 12 10 34 -24 57 l-34 24 39 22 c25 14 39
30 39 42 0 26 -26 26 -64 1 -38 -25 -46 -19 -46 30 0 32 -3 39 -20 39 -16 0
-19 -8 -22 -61 -3 -53 -6 -62 -29 -76 -24 -15 -28 -14 -68 11 -57 37 -55 69 9
106 28 16 46 34 48 48 4 26 -12 28 -48 7 -41 -23 -49 -18 -52 32 -3 44 -15 62
-31 47z m53 -284 c38 -20 40 -22 40 -70 0 -48 -1 -50 -40 -70 l-40 -20 -40 20
c-39 20 -40 22 -40 70 0 47 2 51 38 69 46 25 36 25 82 1z"/>
</g>
</svg>
