<?xml version="1.0" standalone="no"?>
<!DOCTYPE svg PUBLIC "-//W3C//DTD SVG 20010904//EN"
 "http://www.w3.org/TR/2001/REC-SVG-20010904/DTD/svg10.dtd">
<svg version="1.0" xmlns="http://www.w3.org/2000/svg"
 width="72.000000pt" height="72.000000pt" viewBox="0 0 72.000000 72.000000"
 preserveAspectRatio="xMidYMid meet">

<g transform="translate(0.000000,72.000000) scale(0.100000,-0.100000)"
fill="#000000" stroke="none">
<path d="M347 714 c-4 -4 -7 -36 -7 -71 0 -57 2 -63 20 -63 19 0 21 5 18 67
-3 61 -14 84 -31 67z"/>
<path d="M103 604 c-7 -19 63 -94 89 -94 30 0 21 33 -20 73 -41 40 -59 46 -69
21z"/>
<path d="M547 582 c-40 -41 -48 -72 -19 -72 26 0 96 75 89 94 -10 25 -30 19
-70 -22z"/>
<path d="M269 507 c-55 -37 -79 -81 -79 -147 0 -43 6 -65 23 -90 40 -59 71
-75 147 -75 76 0 107 16 148 75 31 46 31 134 -1 181 -37 55 -81 79 -147 79
-43 0 -65 -6 -91 -23z m162 -40 c22 -15 39 -38 49 -65 13 -37 13 -47 0 -84
-20 -56 -59 -83 -120 -83 -61 0 -100 27 -120 83 -41 117 89 218 191 149z"/>
<path d="M5 370 c-13 -21 8 -30 71 -30 57 0 64 2 64 20 0 18 -7 20 -64 20 -36
0 -68 -4 -71 -10z"/>
<path d="M580 360 c0 -19 5 -21 68 -18 52 2 67 6 67 18 0 12 -15 16 -67 18
-63 3 -68 1 -68 -18z"/>
<path d="M136 171 c-38 -39 -44 -71 -13 -71 19 0 87 73 87 93 0 29 -34 19 -74
-22z"/>
<path d="M510 192 c0 -26 75 -96 94 -89 25 10 19 30 -22 70 -41 40 -72 48 -72
19z"/>
<path d="M342 73 c2 -53 6 -68 18 -68 12 0 16 15 18 68 3 62 1 67 -18 67 -19
0 -21 -5 -18 -67z"/>
</g>
</svg>
