<svg width="100" height="100" viewBox="0 0 100 100" fill="none" xmlns="http://www.w3.org/2000/svg">
<path d="M27.5 37C32.7467 37 37 32.7467 37 27.5C37 22.2533 32.7467 18 27.5 18C22.2533 18 18 22.2533 18 27.5C18 32.7467 22.2533 37 27.5 37Z" fill="white"/>
<path d="M71.5 37C76.7467 37 81 32.7467 81 27.5C81 22.2533 76.7467 18 71.5 18C66.2533 18 62 22.2533 62 27.5C62 32.7467 66.2533 37 71.5 37Z" fill="white"/>
<path d="M81.27 84.6621C60.8502 54.9463 28.9658 63.3954 18.2692 85.048" stroke="white" stroke-width="8.5" stroke-linecap="round"/>
</svg>
