<?xml version="1.0" standalone="no"?>
<!DOCTYPE svg PUBLIC "-//W3C//DTD SVG 20010904//EN"
 "http://www.w3.org/TR/2001/REC-SVG-20010904/DTD/svg10.dtd">
<svg version="1.0" xmlns="http://www.w3.org/2000/svg"
 width="72.000000pt" height="72.000000pt" viewBox="0 0 72.000000 72.000000"
 preserveAspectRatio="xMidYMid meet">

<g transform="translate(0.000000,72.000000) scale(0.100000,-0.100000)"
fill="#000000" stroke="none">
<path d="M493 535 c-43 -18 -73 -69 -73 -123 0 -35 6 -49 29 -73 60 -60 161
-27 161 52 0 32 -31 69 -57 69 -13 -1 -11 -5 8 -15 77 -42 13 -144 -68 -110
-63 27 -72 98 -19 151 28 28 42 34 75 34 86 0 141 -56 141 -144 0 -66 -37
-128 -93 -159 -40 -21 -54 -22 -312 -25 -160 -2 -274 -7 -280 -13 -7 -7 87 -9
275 -7 324 3 335 6 397 86 56 74 56 165 0 229 -53 60 -118 77 -184 48z"/>
<path d="M261 384 c-26 -33 -27 -56 -2 -78 22 -20 72 -18 79 2 3 11 0 12 -16
3 -42 -22 -74 15 -47 55 18 28 41 30 73 8 31 -22 30 -77 -3 -109 -22 -23 -32
-25 -127 -26 -57 -1 -130 -5 -163 -9 -45 -5 -18 -7 108 -9 l169 -1 34 34 c26
26 34 43 34 69 0 77 -94 118 -139 61z"/>
</g>
</svg>
